<svg width="107" height="95" viewBox="0 0 107 95" fill="none" xmlns="http://www.w3.org/2000/svg">
<g clip-path="url(#clip0_232_22)">
<path d="M92.8643 82.6207H91.1641V87.2731C91.1641 88.3793 90.2139 89.3065 89.0804 89.3065H85.1965C84.063 89.3065 83.1128 88.3793 83.1128 87.2731V82.6207H77.2786V87.2731C77.2786 91.5351 80.8291 95 85.1965 95H89.0804C93.4477 95 96.9983 91.5351 96.9983 87.2731V82.1815C95.9315 82.4743 94.798 82.637 93.5811 82.637C93.3477 82.637 93.1144 82.637 92.881 82.6207H92.8643Z" fill="#1F2838"/>
<path d="M23.9036 87.2732C23.9036 88.3793 22.9535 89.3066 21.82 89.3066H17.936C16.8025 89.3066 15.8524 88.3793 15.8524 87.2732V82.6208H14.0188C13.9021 82.6208 13.6687 82.6208 13.4353 82.6208C12.2185 82.6208 11.0683 82.4418 10.0015 82.1653V87.2569C10.0015 91.5189 13.552 94.9838 17.9194 94.9838H21.8033C26.1706 94.9838 29.7212 91.5189 29.7212 87.2569V82.6045H23.887V87.2569L23.9036 87.2732Z" fill="#1F2838"/>
<path d="M10.2515 33.9007C9.36807 35.7389 6.75099 36.3896 4.45064 35.3322L2.88372 34.6165C0.583366 33.5591 -0.566813 31.1841 0.316658 29.3297C1.2168 27.4752 3.83387 26.8408 6.13423 27.8982L7.70114 28.6139C10.0015 29.6713 11.1683 32.0463 10.2682 33.9007H10.2515Z" fill="#1F2838"/>
<path d="M96.7484 33.9007C97.6318 35.7389 100.249 36.3896 102.549 35.3322L104.133 34.6165C106.433 33.5591 107.583 31.1841 106.7 29.3297C105.8 27.4752 103.183 26.8408 100.882 27.8982L99.2988 28.6139C96.9984 29.6713 95.8482 32.0463 96.7317 33.9007H96.7484Z" fill="#1F2838"/>
<path d="M101.182 46.8981C101.099 46.6866 100.999 46.4914 100.866 46.3125C98.8654 43.4495 94.5481 38 93.4812 36.6498L86.4635 20.5779C84.0131 14.4452 80.3792 13.0137 79.6791 12.786C79.6124 12.7697 79.5457 12.7534 79.4791 12.7372C75.8618 11.8587 72.1446 11.2568 68.694 10.8339L67.1438 5.61216C66.4937 2.45634 63.4266 0 60.076 0H46.9073C43.5735 0 40.5063 2.45634 39.8396 5.61216L38.2893 10.8339C34.8388 11.2406 31.1215 11.8425 27.5043 12.7372C27.4376 12.7372 27.3709 12.7697 27.3043 12.786C26.6042 13.0137 22.9536 14.4289 20.5532 20.4966L13.5021 36.6498C12.4353 37.9837 8.11795 43.4332 6.11764 46.3125C5.98429 46.4914 5.88427 46.7029 5.80092 46.8981C1.76696 57.2603 3.9173 67.476 4.25068 68.9075C4.75076 72.2586 7.26782 78.1635 13.4188 78.1635C13.5855 78.1635 13.7688 78.1635 13.9355 78.1635H93.0145C93.1979 78.1635 93.3646 78.1635 93.5312 78.1635C99.6822 78.1635 102.199 72.2586 102.699 68.9075C103.033 67.476 105.183 57.2603 101.132 46.8981H101.182ZM95.7316 49.0779C95.7316 49.0779 95.8149 49.1918 95.8483 49.2406C96.5984 51.2577 97.0818 53.2586 97.3652 55.1943H85.0133C86.5802 49.9238 94.7481 49.1592 95.7316 49.0779ZM45.5071 7.05993C45.5404 6.96233 45.5571 6.86473 45.5738 6.76712C45.6738 6.23031 46.3406 5.69349 46.924 5.69349H60.0927C60.6595 5.69349 61.3429 6.24657 61.4429 6.75086C61.4596 6.84846 61.4929 6.96233 61.5096 7.05993L62.4431 10.2483C57.4923 9.90668 53.9918 9.95548 53.7084 9.95548C53.6417 9.95548 53.575 9.97175 53.5084 9.97175C53.4417 9.97175 53.375 9.95548 53.3083 9.95548C53.0249 9.95548 49.5244 9.90668 44.5736 10.2483L45.5071 7.05993ZM25.9874 22.6438C27.3209 19.2928 28.9545 18.333 29.1379 18.2192C40.3896 15.5026 53.0916 15.649 53.225 15.649C53.325 15.649 53.4083 15.6327 53.5084 15.6164C53.6084 15.6164 53.7084 15.649 53.8084 15.649C53.9251 15.649 66.577 15.5026 77.8288 18.2029C78.1955 18.4144 79.7624 19.4392 81.0793 22.7252L86.2468 34.5514H20.7866L25.9874 22.6276V22.6438ZM11.1518 49.2243C11.1518 49.2243 11.2351 49.1104 11.2684 49.0616C12.2686 49.143 20.4032 49.9075 21.9701 55.1781H9.63485C9.91823 53.2586 10.4016 51.2414 11.1518 49.2243ZM97.0318 67.7038C96.9985 67.8014 96.9818 67.9152 96.9651 68.0128C96.9651 68.0616 96.2983 72.6652 93.2979 72.47C93.2312 72.47 93.1812 72.47 93.1145 72.47H13.8855C13.8855 72.47 13.7522 72.47 13.7022 72.47C10.7517 72.6652 10.0683 68.1918 10.0349 68.0128C10.0349 67.9152 10.0016 67.8014 9.98491 67.7038C9.98491 67.655 9.30147 64.857 9.26813 60.8716H23.337C25.4206 60.595 26.9876 59.3913 27.6377 57.5693C28.0544 56.4144 27.971 55.3733 27.9044 54.9666C26.6375 47.5488 19.6364 44.8647 15.169 43.905C16.4026 42.3108 17.5194 40.9118 18.0362 40.2611H88.9639C89.4806 40.9118 90.5975 42.3271 91.831 43.9212C87.3636 44.8973 80.3625 47.5976 79.079 55.0967C79.0457 55.3895 78.9456 56.4306 79.3624 57.5856C80.0291 59.4238 81.5961 60.6113 83.663 60.8716H97.7486C97.6986 64.8895 97.0485 67.6712 97.0318 67.72V67.7038Z" fill="#1F2838"/>
<path d="M71.011 56.2843H35.9889C34.372 56.2843 33.0718 57.5531 33.0718 59.131V67.5086H38.906V61.9778H68.0939V67.5086H73.9281V59.131C73.9281 57.5531 72.6279 56.2843 71.011 56.2843Z" fill="#1F2838"/>
</g>
<defs>
<clipPath id="clip0_232_22">
<rect width="107" height="95" fill="white"/>
</clipPath>
</defs>
</svg>
