<svg width="108" height="95" viewBox="0 0 108 95" fill="none" xmlns="http://www.w3.org/2000/svg">
<g clip-path="url(#clip0_232_71)">
<path d="M73.9116 11.955H43.5854V17.4174H73.9116V11.955Z" fill="#1F2838"/>
<path d="M73.9116 24.0504H43.5854V29.5129H73.9116V24.0504Z" fill="#1F2838"/>
<path d="M73.9116 36.1302H43.5854V41.5927H73.9116V36.1302Z" fill="#1F2838"/>
<path d="M27.095 48.2101H11.0293V53.6725H27.095V48.2101Z" fill="#1F2838"/>
<path d="M27.095 60.3055H11.0293V65.768H27.095V60.3055Z" fill="#1F2838"/>
<path d="M27.095 72.3854H11.0293V77.8322H27.095V72.3854Z" fill="#1F2838"/>
<path d="M0 44.0274V77.8166H5.30973V44.0274C5.30973 42.7632 6.35651 41.6863 7.58533 41.6863H27.0948V36.2239H7.58533C3.4134 36.2239 0 39.7355 0 44.0274Z" fill="#1F2838"/>
<path d="M65.1885 48.2101H43.5854V53.6725H61.3806C62.3819 51.7997 63.5804 50.0205 65.0064 48.3974C65.0671 48.3349 65.1278 48.2725 65.1885 48.2101Z" fill="#1F2838"/>
<path d="M58.8471 60.3055H43.5854V65.768H58.119C58.1796 63.9108 58.4224 62.0847 58.8471 60.3055Z" fill="#1F2838"/>
<path d="M43.5855 72.3854V77.8478H60.3339C59.5905 76.1155 59.0444 74.2894 58.65 72.3854H43.5703H43.5855Z" fill="#1F2838"/>
<path d="M77.9467 0H39.5498C35.3778 0 31.9644 3.51158 31.9644 7.80352L31.9341 77.8323H37.2742V7.80352C37.2742 6.53935 38.3209 5.46246 39.5498 5.46246H77.9467C79.1755 5.46246 80.2223 6.53935 80.2223 7.80352V39.7979C81.2843 39.6106 82.3614 39.4702 83.4537 39.4078C84.1515 39.3765 84.8494 39.3921 85.5321 39.4078V7.80352C85.5321 3.51158 82.1187 0 77.9467 0Z" fill="#1F2838"/>
<path d="M80.0253 55.8576C75.6561 57.8553 72.8799 62.5062 73.1226 67.4068C73.1985 68.8739 74.3666 69.9976 75.7775 69.9976C75.823 69.9976 75.8685 69.9976 75.914 69.9976C77.3856 69.9195 78.5082 68.6398 78.4324 67.1415C78.311 64.4571 79.8129 61.9287 82.1947 60.8362C83.5297 60.2276 84.1365 58.6044 83.5449 57.231C82.9532 55.8576 81.3755 55.2333 80.0405 55.842L80.0253 55.8576Z" fill="#1F2838"/>
<path d="M107.363 90.5052L100.399 82.1086C100.521 81.9838 100.642 81.8745 100.763 81.7341C104.632 77.3329 106.604 71.6519 106.331 65.7369C105.739 53.5322 95.6964 44.0587 83.7115 44.6518C71.8329 45.2604 62.6243 55.6859 63.216 67.9218C63.7924 79.7676 73.2438 89.0382 84.7583 89.0382C85.1072 89.0382 85.4713 89.0382 85.8354 89.0069C89.6129 88.8197 93.1932 87.6179 96.3032 85.589L103.327 94.048C103.858 94.6879 104.602 95 105.345 95C105.952 95 106.574 94.7815 107.074 94.3446C108.182 93.3613 108.318 91.6445 107.363 90.4896V90.5052ZM85.5624 83.5601C76.5358 84.0283 68.9505 76.8647 68.5105 67.6565C68.0706 58.4328 75.0036 50.5668 83.9694 50.1142C84.2425 50.1142 84.5156 50.0986 84.7886 50.0986C93.4663 50.0986 100.596 57.0906 101.036 66.0178C101.249 70.4814 99.7621 74.7733 96.8493 78.082C93.9366 81.3907 89.9315 83.3416 85.5927 83.5601H85.5624Z" fill="#1F2838"/>
</g>
<defs>
<clipPath id="clip0_232_71">
<rect width="108" height="95" fill="white"/>
</clipPath>
</defs>
</svg>
