<svg width="138" height="95" viewBox="0 0 138 95" fill="none" xmlns="http://www.w3.org/2000/svg">
<g clip-path="url(#clip0_232_141)">
<path d="M54.3831 95C53.9634 95 53.5599 94.961 53.1563 94.8829C49.0723 94.1415 47.5065 90.0246 47.329 89.5564C47.0546 88.7564 47.0223 87.8589 47.2806 87.0394L57.6439 52.7778L53.1079 54.124C51.8488 54.4557 23.7936 61.7334 5.55287 54.5923C4.66505 54.2411 3.97093 53.3826 3.71265 52.29L2.74412 48.2902C2.53427 47.4122 2.61498 46.4561 3.0024 45.6562C3.37367 44.8562 4.00321 44.2709 4.72961 44.0367L12.6877 41.4808L0.661771 24.3499C-0.339048 22.9061 -0.193768 20.7599 0.984615 19.5307L2.4697 18.0088C3.26067 17.1893 4.35834 16.9747 5.32688 17.443L28.9268 28.6814L104.23 5.89236C104.892 5.67774 121.244 0.624339 130.558 5.4436C133.044 6.73134 134.868 8.15566 135.998 9.69704C136.289 10.0873 136.483 10.3994 136.644 10.8287C136.838 11.3555 137.015 11.8238 137.112 12.2725C138.404 17.7942 138.274 22.2623 136.725 25.5401C135.595 27.94 133.738 29.618 131.349 30.3984L93.0115 42.2612L69.8474 82.1811C69.8474 82.1811 69.7505 82.3372 69.7021 82.4153C63.8263 90.8636 58.79 95 54.3831 95ZM53.1079 87.6833C53.35 87.8979 53.6567 88.093 54.0442 88.1516C54.9481 88.2881 58.451 87.9564 65.2953 78.1423L88.9921 37.3054C89.3795 36.642 89.9445 36.1542 90.6063 35.9591L129.913 23.8036C131.123 23.4134 131.575 22.6915 131.817 22.1842C132.189 21.3842 132.657 19.6087 132.06 16.0382L121.034 19.3161C119.517 19.7648 117.984 18.6527 117.612 16.8186C117.241 14.9846 118.161 13.131 119.678 12.6823L125.893 10.8482C119.275 9.13122 109.315 11.375 105.619 12.5457L29.4434 35.6274C28.8784 35.803 28.265 35.7445 27.7162 35.4908L9.91127 27.023L19.9033 41.2662C20.5329 42.1637 20.7266 43.3734 20.4522 44.505C20.1616 45.6171 19.4191 46.4756 18.4828 46.7878L10.7022 49.2853C27.5386 53.8509 51.5905 47.6268 51.8488 47.5488L61.4696 44.6806C62.4865 44.3879 63.5519 44.7782 64.246 45.7147C64.9402 46.6512 65.15 47.978 64.7949 49.1682L53.124 87.7223L53.1079 87.6833Z" fill="#1F2838"/>
<path d="M48.8464 6.86794C49.476 6.82892 50.1216 6.82892 50.7673 6.82892C57.5632 6.82892 64.23 8.56541 69.347 10.3604L79.4359 7.33621C75.3358 5.30704 63.4551 0 50.7673 0C46.8932 0 43.2289 0.507291 39.8875 1.50236C38.7736 1.83405 37.9504 2.94619 37.7728 4.31197C37.5953 5.67776 38.128 7.02403 39.1126 7.74594L50.4283 16.0187L58.1766 13.6969L48.8303 6.86794H48.8464Z" fill="#1F2838"/>
</g>
<defs>
<clipPath id="clip0_232_141">
<rect width="138" height="95" fill="white"/>
</clipPath>
</defs>
</svg>
