<svg width="57" height="95" viewBox="0 0 57 95" fill="none" xmlns="http://www.w3.org/2000/svg">
<g clip-path="url(#clip0_232_65)">
<path d="M44.3402 35.4036C43.1303 35.4036 42.1575 36.3438 42.1575 37.5131V76.111C42.1575 77.2802 43.1303 78.2205 44.3402 78.2205C45.55 78.2205 46.5229 77.2802 46.5229 76.111V37.5131C46.5229 36.3438 45.55 35.4036 44.3402 35.4036Z" fill="#1F2838"/>
<path d="M12.6598 35.4036C11.4499 35.4036 10.4771 36.3438 10.4771 37.5131V76.111C10.4771 77.2802 11.4499 78.2205 12.6598 78.2205C13.8696 78.2205 14.8425 77.2802 14.8425 76.111V37.5131C14.8425 36.3438 13.8696 35.4036 12.6598 35.4036Z" fill="#1F2838"/>
<path d="M28.5001 41.7681C26.2675 41.7681 24.459 42.9735 24.459 44.4562C24.459 45.9389 26.2675 47.1563 28.5001 47.1563C30.7327 47.1563 32.5413 45.9509 32.5413 44.4562C32.5413 42.9614 30.7327 41.7681 28.5001 41.7681Z" fill="#1F2838"/>
<path d="M19.7568 5.24362C21.1412 4.82172 23.9102 4.24312 28.5001 4.21901C33.1025 4.24312 35.8714 4.82172 37.2434 5.24362V9.42647H41.6089V3.82122C41.6089 3.07385 41.1973 2.38675 40.5362 2.00102C40.187 1.79609 36.8942 0.0602715 28.7121 0C28.6373 0 28.5749 0 28.5001 0C28.4253 0 28.3629 0 28.2881 0C20.106 0.0723258 16.8132 1.79609 16.464 2.00102C15.803 2.38675 15.3914 3.07385 15.3914 3.82122V9.43852H19.7568V5.25568V5.24362Z" fill="#1F2838"/>
<path d="M46.0864 25.5551H41.5588V13.6816H37.1934V25.5551H19.819V13.6816H15.4536V25.5551H10.926C4.90173 25.5551 0.0124512 30.2925 0.0124512 36.1027V78.4735C0.0124512 84.1391 4.65228 88.7559 10.4521 88.997V92.8905C10.4521 94.0598 11.4249 95 12.6348 95C13.8446 95 14.8175 94.0598 14.8175 92.8905V89.0211H42.2074V92.8905C42.2074 94.0598 43.1803 95 44.3901 95C45.6 95 46.5728 94.0598 46.5728 92.8905V88.997C52.3726 88.7559 57.0125 84.127 57.0125 78.4735V36.1027C57.0125 30.2925 52.1232 25.5551 46.0989 25.5551H46.0864ZM52.6346 78.4735C52.6346 81.9572 49.691 84.8021 46.0864 84.8021H10.9135C7.30895 84.8021 4.36541 81.9572 4.36541 78.4735V36.1027C4.36541 32.6069 7.30895 29.7741 10.9135 29.7741H46.0864C49.691 29.7741 52.6346 32.6069 52.6346 36.1027V78.4735Z" fill="#1F2838"/>
</g>
<defs>
<clipPath id="clip0_232_65">
<rect width="57" height="95" fill="white"/>
</clipPath>
</defs>
</svg>
