<svg width="95" height="90" viewBox="0 0 95 90" fill="none" xmlns="http://www.w3.org/2000/svg">
<g clip-path="url(#clip0_296_380)">
<path d="M56.124 82.4615V83.8885C56.124 86.2668 57.9353 88.1983 60.1657 88.1983C62.3961 88.1983 64.2074 86.2668 64.2074 83.8885V82.4615" stroke="black" stroke-width="4" stroke-linejoin="round"/>
<path d="M77.9409 82.4615V83.8885C77.9409 86.2668 79.7522 88.1983 81.9826 88.1983C84.213 88.1983 86.0243 86.2668 86.0243 83.8885V82.4615" stroke="black" stroke-width="4" stroke-linejoin="round"/>
<path d="M79.9957 15.639V4.0359C79.9957 4.0359 78.4683 1.80176 71.0743 1.80176C63.6803 1.80176 62.1528 4.0359 62.1528 4.0359V15.639" stroke="black" stroke-width="4" stroke-linejoin="round"/>
<path d="M83.51 70.2386V32.6906" stroke="black" stroke-width="4" stroke-miterlimit="10" stroke-linecap="round"/>
<path d="M58.6382 70.2386V32.6906" stroke="black" stroke-width="4" stroke-miterlimit="10" stroke-linecap="round"/>
<path d="M69.1143 37.0868H73.0343" stroke="black" stroke-width="4" stroke-miterlimit="10" stroke-linecap="round"/>
<path d="M57.0297 21.9667H85.1053C89.6201 21.9667 93.2968 25.8872 93.2968 30.7015V72.4007C93.2968 77.2149 89.6336 81.1355 85.1053 81.1355H57.0162C52.5014 81.1355 48.8247 77.2293 48.8247 72.4007V30.7015C48.8247 25.8872 52.4879 21.9667 57.0162 21.9667H57.0297Z" stroke="black" stroke-width="4" stroke-miterlimit="10" stroke-linecap="round"/>
<path d="M48.8653 88.1983H6.23153C3.73082 88.1983 1.6897 86.0218 1.6897 83.3553V53.461C1.6897 50.7944 3.73082 48.6179 6.23153 48.6179H42.404" stroke="black" stroke-width="4" stroke-miterlimit="10"/>
<path d="M18.4917 42.2614V39.6669C18.4917 37.0003 20.5328 34.8239 23.0335 34.8239H32.2253C34.726 34.8239 36.7672 37.0003 36.7672 39.6669V42.2614" stroke="black" stroke-width="4" stroke-miterlimit="10"/>
<path d="M11.2329 55.623V81.1788" stroke="black" stroke-width="4" stroke-miterlimit="10"/>
</g>
<defs>
<clipPath id="clip0_296_380">
<rect width="95" height="90" fill="white"/>
</clipPath>
</defs>
</svg>
