<svg width="100" height="99" viewBox="0 0 100 99" fill="none" xmlns="http://www.w3.org/2000/svg">
<mask id="mask0_153_133" style="mask-type:alpha" maskUnits="userSpaceOnUse" x="0" y="0" width="101" height="99">
<g clip-path="url(#clip0_153_133)">
<path d="M97.9168 4.1334L77.7879 0.0576159C76.5589 -0.187219 75.3149 0.432069 74.8203 1.55543L66.9665 19.702L21.6128 19.6444C20.6086 19.6444 19.6794 20.2061 19.2447 21.0702C18.8101 21.9487 18.93 22.9857 19.5595 23.749L54.0319 64.8092V93.1093H39.0289C37.5751 93.1093 36.406 94.2327 36.406 95.6297C36.406 97.0267 37.5751 98.15 39.0289 98.15H74.2807C75.7345 98.15 76.9036 97.0267 76.9036 95.6297C76.9036 94.2327 75.7345 93.1093 74.2807 93.1093H59.2777V64.8957L93.8101 23.749C94.4396 22.9857 94.5745 21.9487 94.1398 21.0702C93.7052 20.1917 92.7909 19.6444 91.7717 19.6444L72.662 19.6876L78.8371 5.41518L96.8377 9.0733C98.2465 9.36134 99.6404 8.49722 99.9402 7.12902C100.24 5.76083 99.3257 4.43584 97.9168 4.1478V4.1334ZM56.6848 59.9558L36.7507 36.2068H54.9462L57.1644 31.1661H32.5241L27.0984 24.7139L64.7783 24.7571L54.1968 49.2118C53.6422 50.4936 54.2717 51.977 55.6056 52.5099C55.9354 52.6395 56.2801 52.6971 56.6098 52.6971C57.644 52.6971 58.6182 52.1066 59.0379 51.1417L65.4977 36.2068H76.6188L56.6848 59.9558ZM86.2711 24.7139L80.8454 31.1661H67.686L70.4588 24.7427L86.2711 24.7139Z" fill="#39434E"/>
<path d="M18.6902 33.9889C18.1506 33.9889 17.611 33.96 17.0864 33.9024L19.5295 25.4916C17.9108 25.7365 16.367 25.2612 15.198 24.3251L12.7549 32.7503C10.3568 31.6989 8.33344 30.0283 6.86462 27.8824L15.168 24.2963C14.2537 23.5474 13.5942 22.5104 13.3544 21.2862C13.2945 20.9838 13.2795 20.667 13.2795 20.3645L4.99112 23.9362C4.37661 21.7759 4.33165 19.486 4.87121 17.2537C5.00611 16.6776 5.20095 16.1159 5.41078 15.583L13.3095 19.8604C13.4743 18.3482 14.2987 16.98 15.5727 16.1303L7.62901 11.8241C9.36762 9.73579 11.7207 8.19477 14.4036 7.38826L15.7975 15.9719C16.367 15.6262 17.0115 15.3814 17.7159 15.2518C18.6002 15.0934 19.4695 15.1798 20.2639 15.4246L18.855 6.75457C19.8742 6.75457 20.9084 6.88418 21.9126 7.11462C23.8011 7.54668 25.5097 8.33879 26.9935 9.37574L20.5637 15.5254C22.0025 16.0439 23.1866 17.1384 23.7411 18.5787L30.171 12.4434C30.8454 13.3507 31.415 14.33 31.8346 15.367H36.5858C34.7573 9.37574 29.7213 4.45024 22.9617 2.92362C21.5529 2.60677 20.114 2.44835 18.6752 2.44835C9.96714 2.41955 2.50311 8.10836 0.509704 16.2599C-0.629385 20.9262 0.179968 25.7365 2.80287 29.8123C5.42577 33.888 9.54747 36.7396 14.4036 37.8342C15.8125 38.151 17.2663 38.3095 18.7051 38.3095C20.9533 38.3095 23.1116 37.9206 25.12 37.2293L22.0625 33.6144C20.9833 33.8592 19.8742 34.0033 18.7201 34.0033L18.6902 33.9889Z" fill="#39434E"/>
</g>
</mask>
<g mask="url(#mask0_153_133)">
<rect x="-2.99988" y="-7" width="115.408" height="116.657" fill="black"/>
</g>
<defs>
<clipPath id="clip0_153_133">
<rect width="100" height="98.15" fill="white"/>
</clipPath>
</defs>
</svg>
