<svg width="130" height="99" viewBox="0 0 130 99" fill="none" xmlns="http://www.w3.org/2000/svg">
<g clip-path="url(#clip0_153_141)">
<path d="M95.6809 84.7331H115.399V79.4349H93.6669C94.4953 81.0849 95.2099 82.8711 95.6809 84.7331Z" fill="black"/>
<path d="M71.2531 12.7543C71.6754 13.2235 72.1627 13.6625 72.7149 14.0864C73.1047 14.5556 73.3321 15.0249 73.3321 15.4639C73.3321 16.2208 72.6986 17.0836 71.5779 17.901C70.3273 18.7941 70.0999 20.4593 71.0582 21.6097C71.6104 22.2909 72.455 22.6542 73.3158 22.6542C73.9168 22.6542 74.534 22.4725 75.0375 22.1092C77.6037 20.2776 79.0167 17.9162 79.0167 15.4639C79.0167 13.829 78.3671 12.2245 77.1652 10.8016C77.0839 10.6805 76.9865 10.5745 76.889 10.4685C76.4668 9.99927 75.9795 9.56028 75.4273 9.13643C75.0375 8.65203 74.8101 8.18277 74.8101 7.74378C74.8101 6.98691 75.4273 6.12407 76.5642 5.30665C77.8148 4.41354 78.0422 2.74842 77.0839 1.59797C76.1257 0.432382 74.3391 0.220458 73.1047 1.11357C70.5385 2.9452 69.1254 5.30665 69.1254 7.74378C69.1254 9.37863 69.7751 10.9832 70.9608 12.4061C71.042 12.5272 71.1394 12.6332 71.2531 12.7391V12.7543Z" fill="black"/>
<path d="M87.7874 12.7543C88.2096 13.2235 88.6969 13.6625 89.2491 14.0864C89.6389 14.5556 89.8663 15.0249 89.8663 15.4639C89.8663 16.2208 89.2491 17.0836 88.1122 17.901C86.8616 18.7941 86.6342 20.4593 87.5925 21.6097C88.1447 22.2909 88.9893 22.6542 89.8501 22.6542C90.451 22.6542 91.0682 22.4725 91.5717 22.1092C94.1379 20.2776 95.551 17.9162 95.551 15.4639C95.551 13.829 94.9013 12.2245 93.6994 10.8016C93.6182 10.6805 93.5207 10.5745 93.407 10.4685C92.9848 9.99927 92.4975 9.56028 91.9453 9.13643C91.5555 8.65203 91.3281 8.18277 91.3281 7.74378C91.3281 6.98691 91.9615 6.12407 93.0822 5.30665C94.3328 4.41354 94.5602 2.74842 93.602 1.59797C92.6437 0.432382 90.8733 0.220458 89.6227 1.11357C87.0565 2.9452 85.6434 5.30665 85.6434 7.74378C85.6434 9.37863 86.2931 10.9681 87.4788 12.4061C87.56 12.5272 87.6574 12.6332 87.7711 12.7391L87.7874 12.7543Z" fill="black"/>
<path d="M83.3373 73.2134C85.059 70.1708 84.8966 67.8548 84.8641 67.6126C84.6529 63.9493 81.3071 60.5585 81.031 60.286C75.9635 54.7306 68.1025 54.1251 64.5617 54.1553C64.3181 52.3994 63.8958 51.3398 63.8471 51.249L63.7496 51.0522C59.8678 43.6499 48.9695 42.9536 46.0135 42.8931C46.0135 42.8931 45.8024 42.8931 45.575 42.8931C45.4288 42.8931 45.3151 42.8931 45.2826 42.8931C42.3266 42.9385 31.4445 43.6348 27.5465 51.0522L27.449 51.249C27.3516 51.4609 25.2564 56.6076 27.9363 63.5709L37.9251 88.1541C37.3566 88.7899 36.7719 89.1683 36.1709 89.244C35.0665 89.3802 33.8483 88.6234 33.4585 88.3055L14.4393 72.729C12.0193 70.08 12.0842 68.0364 12.0842 67.9153C12.1654 66.5529 13.7409 64.5851 14.5855 63.7374C16.6157 61.5122 19.4418 60.4374 21.9755 59.9227C21.537 57.8489 21.5045 56.0173 21.6345 54.5641C17.9638 55.1696 13.5622 56.6682 10.3463 60.1952C9.97278 60.5736 6.62696 63.9644 6.41581 67.5066C6.38333 67.8396 6.20467 70.1708 7.94255 73.2134C6.41581 74.8937 0.487525 81.8266 0.0814776 88.6385C-0.357053 91.666 0.390073 97.3577 6.38333 98.3265C6.75689 98.4022 7.79637 98.5687 9.40432 98.5687C13.2699 98.5687 20.4001 97.5696 29.2356 91.8779L29.7067 92.2564C29.999 92.5137 32.5328 94.5573 35.9273 94.5573C36.2359 94.5573 36.5607 94.5421 36.8856 94.4967C37.8276 94.3907 39.0295 94.0577 40.2476 93.2857C41.2059 94.6178 42.9113 95.9348 45.5263 96.0256C45.5263 96.0256 45.6075 96.0256 45.6562 96.0256C45.7049 96.0256 45.7374 96.0256 45.7861 96.0256C48.4011 95.9196 50.1065 94.6027 51.081 93.2706C52.3154 94.0426 53.501 94.3605 54.443 94.4816C54.7679 94.5118 55.0927 94.5421 55.4013 94.5421C58.7796 94.5421 61.3134 92.4986 61.5895 92.2715L62.093 91.8628C70.9286 97.5696 78.0587 98.5536 81.9081 98.5536C83.4998 98.5536 84.5555 98.387 84.9291 98.3114C90.9061 97.3426 91.6694 91.6357 91.2309 88.6234C90.8249 81.8115 84.8966 74.8785 83.3698 73.1983L83.3373 73.2134ZM7.61771 93.1646L7.40657 93.1192C5.2464 92.7862 5.73365 89.4257 5.74989 89.3046L5.78238 89.0169C5.97728 84.8996 9.48553 79.9496 11.6132 77.4216L24.8179 88.2449C14.553 94.4513 7.65019 93.1495 7.61771 93.1495V93.1646ZM76.8081 63.8433C77.5228 64.5397 79.1145 66.5529 79.2119 67.9607C79.2119 68.0515 79.2769 70.08 76.8568 72.729L65.6012 81.9326L65.5525 81.9023L65.3901 82.1143L57.8051 88.3206C57.8051 88.3206 56.4246 89.3802 55.1414 89.2289C54.5405 89.1532 53.9558 88.7899 53.3711 88.139L63.3761 63.5254C63.9283 62.0874 64.2694 60.725 64.4805 59.4535C66.9655 59.4081 73.0887 59.7411 76.8081 63.8282V63.8433ZM45.6562 90.7275C45.1689 90.6669 44.9253 90.349 44.8279 90.122L33.2961 61.7392C31.5258 57.1374 32.549 53.8223 32.7439 53.2774C35.0502 49.1297 42.2941 48.2215 45.4613 48.2063C45.5587 48.2063 45.6887 48.2063 45.8024 48.2063C45.8349 48.2063 45.8673 48.2063 45.8998 48.2063C49.0507 48.2215 56.3109 49.1297 58.601 53.2774C58.8121 53.8829 59.8029 57.1828 58.065 61.7089L46.5333 90.0766C46.4196 90.3642 46.1597 90.6972 45.6724 90.7426L45.6562 90.7275ZM79.7154 77.4519C81.8593 79.9799 85.3351 84.9147 85.5462 89.0321L85.5787 89.3197C85.5787 89.3197 86.131 92.8013 83.9221 93.1343L83.7109 93.1798C83.7109 93.1798 76.7756 94.4967 66.5108 88.2752L79.7317 77.4519H79.7154Z" fill="black"/>
<path d="M116.211 36.0662C115.431 36.0662 114.668 36.1418 113.937 36.2478V26.3782H53.517V39.0634C54.8326 39.351 56.2294 39.7446 57.6262 40.2592C58.1459 40.456 58.6819 40.6679 59.2016 40.9101V31.6914H59.2991V31.6309H108.138V31.6914H108.236V61.9512C108.236 66.3411 104.419 69.8984 99.7089 69.8984H89.7851C89.6714 70.6553 89.4765 71.5181 89.1516 72.4718C89.7851 73.2589 90.4672 74.1672 91.1494 75.1965H99.7089C107.537 75.1965 113.921 69.2475 113.921 61.9512V59.9228C114.668 60.0288 115.415 60.1045 116.194 60.1045C123.812 60.1045 129.967 54.7155 129.967 48.0853C129.967 41.4551 123.796 36.0662 116.194 36.0662H116.211ZM116.211 54.7912C115.415 54.7912 114.651 54.6701 113.937 54.4885V41.667C114.668 41.4854 115.415 41.3643 116.211 41.3643C120.677 41.3643 124.299 44.3766 124.299 48.0853C124.299 51.794 120.661 54.8064 116.211 54.8064V54.7912Z" fill="black"/>
</g>
<defs>
<clipPath id="clip0_153_141">
<rect width="130" height="98" fill="white" transform="translate(0 0.568726)"/>
</clipPath>
</defs>
</svg>
