<svg width="95" height="87" viewBox="0 0 95 87" fill="none" xmlns="http://www.w3.org/2000/svg">
<g clip-path="url(#clip0_239_229)">
<path d="M82.4498 75.3223H80.9402V79.5637C80.9402 80.5721 80.0966 81.4174 79.0902 81.4174H75.6419C74.6355 81.4174 73.7919 80.5721 73.7919 79.5637V75.3223H68.6119V79.5637C68.6119 83.4492 71.7643 86.608 75.6419 86.608H79.0902C82.9678 86.608 86.1201 83.4492 86.1201 79.5637V74.9219C85.1729 75.1888 84.1665 75.3371 83.0862 75.3371C82.879 75.3371 82.6718 75.3371 82.4646 75.3223H82.4498Z" fill="#39434E"/>
<path d="M21.2229 79.5634C21.2229 80.5718 20.3793 81.4171 19.373 81.4171H15.9246C14.9182 81.4171 14.0746 80.5718 14.0746 79.5634V75.322H12.4466C12.343 75.322 12.1358 75.322 11.9286 75.322C10.8483 75.322 9.82707 75.1588 8.87988 74.9067V79.5486C8.87988 83.434 12.0322 86.5928 15.9098 86.5928H19.3582C23.2357 86.5928 26.3881 83.434 26.3881 79.5486V75.3072H21.2081V79.5486L21.2229 79.5634Z" fill="#39434E"/>
<path d="M9.10189 30.9059C8.3175 32.5817 5.99393 33.1749 3.95156 32.2109L2.56038 31.5584C0.518003 30.5944 -0.503184 28.4292 0.281206 26.7386C1.0804 25.048 3.40397 24.4696 5.44634 25.4336L6.83752 26.0861C8.8799 27.05 9.91588 29.2152 9.11669 30.9059H9.10189Z" fill="#39434E"/>
<path d="M85.8981 30.9059C86.6825 32.5817 89.0061 33.1749 91.0485 32.2109L92.4544 31.5584C94.4968 30.5944 95.518 28.4292 94.7336 26.7386C93.9344 25.048 91.6108 24.4696 89.5685 25.4336L88.1625 26.0861C86.1201 27.05 85.0989 29.2152 85.8833 30.9059H85.8981Z" fill="#39434E"/>
<path d="M89.8349 42.7551C89.7609 42.5623 89.6721 42.3843 89.5537 42.2212C87.7777 39.6111 83.9445 34.643 82.9974 33.4121L76.7666 18.76C74.5911 13.1691 71.3647 11.8641 70.7431 11.6564C70.6839 11.6416 70.6247 11.6268 70.5655 11.6119C67.354 10.8111 64.0536 10.2624 60.99 9.87683L59.6136 5.11637C59.0365 2.23934 56.3133 0 53.3385 0H41.6467C38.6867 0 35.9636 2.23934 35.3716 5.11637L33.9952 9.87683C30.9316 10.2476 27.6313 10.7963 24.4197 11.6119C24.3605 11.6119 24.3013 11.6416 24.2421 11.6564C23.6205 11.8641 20.3793 13.1543 18.2482 18.6859L11.9879 33.4121C11.0407 34.6282 7.20751 39.5963 5.43153 42.2212C5.31314 42.3843 5.22434 42.5771 5.15034 42.7551C1.56878 52.2018 3.47796 61.5151 3.77395 62.8202C4.21795 65.8752 6.45272 71.2585 11.9139 71.2585C12.0619 71.2585 12.2246 71.2585 12.3726 71.2585H82.583C82.7458 71.2585 82.8938 71.2585 83.0418 71.2585C88.5029 71.2585 90.7377 65.8752 91.1816 62.8202C91.4776 61.5151 93.3868 52.2018 89.7905 42.7551H89.8349ZM84.9953 44.7423C84.9953 44.7423 85.0693 44.8461 85.0989 44.8906C85.7649 46.7295 86.1941 48.5536 86.4457 50.3184H75.479C76.8702 45.5135 84.1221 44.8165 84.9953 44.7423ZM40.4035 6.43625C40.4331 6.34727 40.4479 6.25829 40.4627 6.16931C40.5515 5.67992 41.1435 5.19052 41.6615 5.19052H53.3533C53.8565 5.19052 54.4633 5.69475 54.5521 6.15448C54.5669 6.24346 54.5965 6.34727 54.6113 6.43625L55.4401 9.34294C51.0446 9.03151 47.9366 9.076 47.685 9.076C47.6258 9.076 47.5666 9.09083 47.5074 9.09083C47.4482 9.09083 47.389 9.076 47.3298 9.076C47.0782 9.076 43.9702 9.03151 39.5747 9.34294L40.4035 6.43625ZM23.0729 20.6435C24.2569 17.5885 25.7073 16.7135 25.8701 16.6097C35.8599 14.1331 47.1374 14.2665 47.2558 14.2665C47.3446 14.2665 47.4186 14.2517 47.5074 14.2369C47.5962 14.2369 47.685 14.2665 47.7738 14.2665C47.8774 14.2665 59.1105 14.1331 69.1003 16.5948C69.4259 16.7876 70.8171 17.7219 71.9863 20.7176L76.5742 31.4991H18.4554L23.0729 20.6286V20.6435ZM9.90108 44.8758C9.90108 44.8758 9.97508 44.772 10.0047 44.7275C10.8927 44.8016 18.115 45.4986 19.5062 50.3036H8.55429C8.80589 48.5536 9.23509 46.7147 9.90108 44.8758ZM86.1497 61.7227C86.1201 61.8117 86.1053 61.9155 86.0905 62.0045C86.0905 62.049 85.4985 66.2459 82.8346 66.068C82.7754 66.068 82.731 66.068 82.6718 66.068H12.3282C12.3282 66.068 12.2098 66.068 12.1654 66.068C9.54588 66.2459 8.93909 62.1677 8.90949 62.0045C8.90949 61.9155 8.87989 61.8117 8.86509 61.7227C8.86509 61.6783 8.2583 59.1275 8.2287 55.4941H20.7197C22.5697 55.242 23.9609 54.1446 24.5381 52.4836C24.9081 51.4307 24.8341 50.4816 24.7749 50.1108C23.6501 43.3483 17.4342 40.9013 13.4678 40.0264C14.563 38.573 15.5546 37.2976 16.0134 36.7044H78.9866C79.4454 37.2976 80.437 38.5878 81.5322 40.0412C77.5658 40.931 71.3499 43.3928 70.2103 50.2294C70.1807 50.4964 70.0919 51.4455 70.4619 52.4984C71.0539 54.1742 72.4451 55.2568 74.2803 55.4941H86.7861C86.7417 59.1571 86.1645 61.6931 86.1497 61.7376V61.7227Z" fill="#39434E"/>
<path d="M63.0472 51.312H31.9528C30.5172 51.312 29.3629 52.4688 29.3629 53.9073V61.5448H34.5428V56.5025H60.4573V61.5448H65.6372V53.9073C65.6372 52.4688 64.4828 51.312 63.0472 51.312Z" fill="#39434E"/>
</g>
<defs>
<clipPath id="clip0_239_229">
<rect width="95" height="86.6076" fill="white"/>
</clipPath>
</defs>
</svg>
