<svg width="98" height="95" viewBox="0 0 98 95" fill="none" xmlns="http://www.w3.org/2000/svg">
<g clip-path="url(#clip0_232_47)">
<path d="M60.2521 13.8489H50.5836V15.8192C50.1576 15.4365 49.5649 15.1813 48.8981 15.1813C48.3239 15.1813 47.8053 15.3656 47.4163 15.6633V13.8489H37.7478L46.6569 17.3926C46.8236 18.314 47.7497 19.0227 48.8981 19.0227C50.0464 19.0227 50.9355 18.3565 51.1392 17.4635L60.2521 13.8347V13.8489Z" fill="#1F2838"/>
<path d="M59.4928 22.3538C55.9921 24.806 47.9536 29.8523 28.561 31.5391" stroke="#1F2838" stroke-width="3.5" stroke-linecap="round" stroke-linejoin="round"/>
<path d="M31.7654 31.6809C31.7654 42.0569 39.9706 52.1636 49.2131 52.1636C58.4556 52.1636 65.6792 42.0994 65.6792 31.7234C65.6792 31.7234 66.0867 26.4929 63.1417 22.1979" stroke="#1F2838" stroke-width="3.5" stroke-linecap="round" stroke-linejoin="round"/>
<path d="M30.1538 58.0745L18.8554 59.8463C18.8554 59.8463 5.94553 61.7883 4.24151 70.0948L2.33374 93.2281" stroke="#1F2838" stroke-width="3.5" stroke-miterlimit="10" stroke-linecap="round"/>
<path d="M48.9721 84.6525L34.8213 54.4458L20.0222 67.7135H29.6351" stroke="#1F2838" stroke-width="3.5" stroke-linecap="round" stroke-linejoin="round"/>
<path d="M67.8462 58.0745L79.1446 59.8463C79.1446 59.8463 92.0545 61.7883 93.7585 70.0948L95.6663 93.2281" stroke="#1F2838" stroke-width="3.5" stroke-miterlimit="10" stroke-linecap="round"/>
<path d="M49.0278 84.6525L63.1787 54.4458L77.9592 67.7135H68.3648" stroke="#1F2838" stroke-width="3.5" stroke-linecap="round" stroke-linejoin="round"/>
<path d="M67.0867 79.0815H80.6448" stroke="#1F2838" stroke-width="3.5" stroke-linecap="round" stroke-linejoin="round"/>
<path d="M70.6244 20.6811C56.455 23.5444 41.5263 23.5444 27.3569 20.6811C28.1904 16.2444 29.1536 11.8218 30.2464 7.44177C42.4894 10.1633 55.4919 10.1633 67.7349 7.44177C68.8277 11.836 69.8094 16.2444 70.6244 20.6811Z" stroke="#1F2838" stroke-width="3.5" stroke-linecap="round" stroke-linejoin="round"/>
<path d="M32.5618 7.65442C34.8955 4.23828 41.4338 1.77185 49.139 1.77185C56.8441 1.77185 62.8823 4.03983 65.4384 7.25753" stroke="#1F2838" stroke-width="3.5" stroke-linecap="round" stroke-linejoin="round"/>
<path d="M28.6905 21.3757C28.6905 21.3757 11.8726 29.8665 21.93 45.8983C21.93 45.8983 24.0045 49.1018 28.7832 48.4214" stroke="#1F2838" stroke-width="3.5" stroke-linecap="round" stroke-linejoin="round"/>
<path d="M69.3094 21.3757C69.3094 21.3757 86.1274 29.8665 76.0699 45.8983C76.0699 45.8983 73.9955 49.1018 69.2168 48.4214" stroke="#1F2838" stroke-width="3.5" stroke-linecap="round" stroke-linejoin="round"/>
</g>
<defs>
<clipPath id="clip0_232_47">
<rect width="98" height="95" fill="white"/>
</clipPath>
</defs>
</svg>
