<svg width="94" height="90" viewBox="0 0 94 90" fill="none" xmlns="http://www.w3.org/2000/svg">
<mask id="mask0_153_150" style="mask-type:alpha" maskUnits="userSpaceOnUse" x="0" y="0" width="94" height="90">
<g clip-path="url(#clip0_153_150)">
<path d="M87.8801 37.3114C89.0458 36.8774 90.1144 36.2108 91.021 35.3427L91.2801 35.0947C93.0286 33.4206 94 31.1729 94 28.7857C94 26.3986 93.0286 24.1664 91.2801 22.4767L86.5687 17.9659L91.4582 13.2845C92.5591 12.2304 92.5591 10.5098 91.4582 9.45573L84.1078 2.41819C83.5735 1.90665 82.8612 1.62762 82.1002 1.62762C81.3393 1.62762 80.6269 1.90665 80.0927 2.41819L75.2032 7.09955L70.4919 2.5887C68.7434 0.914569 66.3958 -0.0155029 63.9025 -0.0155029C61.4092 -0.0155029 59.0778 0.914569 57.3293 2.5887L57.0703 2.83672C56.1474 3.72029 55.4674 4.74337 55.0141 5.84395L53.7027 4.58836C51.9542 2.91422 49.6066 1.98415 47.1133 1.98415C44.62 1.98415 42.2887 2.91422 40.5239 4.58836L40.2649 4.83637C38.5164 6.5105 37.545 8.75818 37.545 11.1454C37.545 13.5326 38.5164 15.7647 40.2649 17.4544L75.7699 51.4485C77.5184 53.1226 79.866 54.0527 82.3593 54.0527C84.8526 54.0527 87.1839 53.1226 88.9487 51.4485L89.2077 51.2005C90.9562 49.5263 91.9277 47.2787 91.9277 44.8915C91.9277 42.5043 90.9562 40.2721 89.2077 38.5825L87.8801 37.3114ZM82.1002 8.18464L85.4516 11.3934L82.5698 14.1526L79.2184 10.9438L82.1002 8.18464ZM61.0854 6.69652L61.3445 6.4485C62.0245 5.79745 62.9473 5.44092 63.9187 5.44092C64.8901 5.44092 65.813 5.79745 66.4929 6.4485L87.2649 26.3365C87.9449 26.9876 88.3173 27.8712 88.3173 28.8012C88.3173 29.7313 87.9449 30.6149 87.2649 31.2659L87.0059 31.514C85.6459 32.8161 83.2174 32.8161 81.8574 31.514L61.0854 11.6259C59.6607 10.2618 59.6607 8.04513 61.0854 6.69652ZM85.1926 47.3562L84.9335 47.6042C84.2535 48.2553 83.3307 48.6118 82.3593 48.6118C81.3879 48.6118 80.465 48.2553 79.785 47.6042L44.2962 13.5946C43.6163 12.9435 43.2439 12.0599 43.2439 11.1299C43.2439 10.1998 43.6163 9.31622 44.2962 8.66517L44.5553 8.41715C45.2353 7.7661 46.1581 7.40958 47.1295 7.40958C48.1009 7.40958 49.0238 7.7661 49.7038 8.41715L85.2088 42.4113C85.8887 43.0624 86.2611 43.9459 86.2611 44.876C86.2611 45.8061 85.8887 46.6896 85.2088 47.3407L85.1926 47.3562Z" fill="#39434E"/>
<path d="M56.3093 39.2956L37.6421 57.1685L34.2907 53.9597L52.958 36.0869L48.9428 32.2426L30.2756 50.1154L18.1977 38.5515C16.4492 36.8774 14.1016 35.9473 11.6083 35.9473C9.11506 35.9473 6.78367 36.8774 5.01895 38.5515L4.7599 38.7996C3.01137 40.4737 2.03996 42.7214 2.03996 45.1086C2.03996 47.4957 3.01137 49.7279 4.7599 51.4175L6.0875 52.6886C4.92181 53.1227 3.85326 53.7892 2.94661 54.6573L2.68757 54.9053C0.93903 56.5794 -0.0323792 58.8271 -0.0323792 61.2143C-0.0323792 63.6015 0.93903 65.8337 2.68757 67.5233L7.3989 72.0341L2.50947 76.7155C1.9752 77.2271 1.68378 77.9091 1.68378 78.6377C1.68378 79.3662 1.9752 80.0483 2.50947 80.5598L9.8598 87.5974C10.4103 88.1244 11.1388 88.3879 11.8674 88.3879C12.5959 88.3879 13.3245 88.1244 13.875 87.5974L18.7482 82.9315L23.4595 87.4423C25.2081 89.1165 27.5556 90.0465 30.0489 90.0465C32.5422 90.0465 34.8736 89.1165 36.6383 87.4423L36.8974 87.1943C37.804 86.3263 38.484 85.3032 38.9535 84.1871L40.2811 85.4582C42.0296 87.1323 44.3772 88.0624 46.8705 88.0624C49.3638 88.0624 51.6951 87.1323 53.4599 85.4582L53.7189 85.2102C57.3455 81.7379 57.3455 76.08 53.7189 72.6077L41.6411 61.0438L60.3083 43.1709L56.3093 39.3421V39.2956ZM11.8998 81.7999L8.5484 78.5912L11.4302 75.8319L14.7816 79.0407L11.8998 81.7999ZM32.9146 83.319L32.6555 83.567C31.2956 84.8691 28.867 84.8691 27.5071 83.567L6.7351 63.679C6.05512 63.028 5.68274 62.1444 5.68274 61.2143C5.68274 60.2842 6.05512 59.4007 6.75129 58.7496L7.01034 58.5016C7.69032 57.8505 8.61316 57.494 9.58457 57.494C10.556 57.494 11.4788 57.8505 12.1588 58.5016L32.9308 78.3896C33.6108 79.0407 33.9831 79.9243 33.9831 80.8543C33.9831 81.7844 33.6108 82.668 32.9146 83.319ZM49.7038 81.3349L49.4447 81.5829C48.0847 82.885 45.6562 82.885 44.2962 81.5829L8.79125 47.5732C8.11127 46.9222 7.73889 46.0386 7.73889 45.1086C7.73889 44.1785 8.11127 43.2949 8.79125 42.6439L9.05029 42.3958C9.73028 41.7448 10.6531 41.3883 11.6245 41.3883C12.5959 41.3883 13.5188 41.7448 14.1988 42.3958L49.7038 76.39C51.1285 77.7541 51.1285 79.9708 49.7038 81.3194V81.3349Z" fill="#39434E"/>
</g>
</mask>
<g mask="url(#mask0_153_150)">
<rect x="-11.3332" width="111.712" height="103.858" fill="black"/>
</g>
<defs>
<clipPath id="clip0_153_150">
<rect width="94" height="90" fill="white"/>
</clipPath>
</defs>
</svg>
