<svg width="106" height="91" viewBox="0 0 106 91" fill="none" xmlns="http://www.w3.org/2000/svg">
<mask id="mask0_153_200" style="mask-type:alpha" maskUnits="userSpaceOnUse" x="0" y="0" width="106" height="91">
<g clip-path="url(#clip0_153_200)">
<path d="M78.4437 71.5552C83.1604 71.5552 86.9737 75.5159 86.9737 80.4151C86.9737 85.3142 83.1604 89.2749 78.4437 89.2749C73.727 89.2749 69.9138 85.3142 69.9138 80.4151C69.9138 77.9034 70.9235 75.6263 72.5445 74.0117" stroke="#394553" stroke-width="3.5" stroke-linecap="round" stroke-linejoin="round"/>
<path d="M61.0251 62.9438C61.0251 77.4894 49.6784 89.275 35.6611 89.275C21.6438 89.275 10.3236 77.4894 10.3236 62.9438C10.3236 48.3981 21.6703 36.6125 35.6744 36.6125C49.6784 36.6125 61.0384 48.3981 61.0384 62.9438H61.0251Z" stroke="#394553" stroke-width="3.5" stroke-linejoin="round"/>
<path d="M35.6743 44.4236C45.5197 44.4236 53.5049 52.7176 53.5049 62.9438C53.5049 73.1699 45.5197 81.4501 35.6743 81.4501C25.829 81.4501 17.8438 73.1561 17.8438 62.9438C17.8438 59.4799 18.7606 56.2368 20.355 53.4629" stroke="#394553" stroke-width="3.5" stroke-linecap="round" stroke-linejoin="round"/>
<path d="M34.5184 62.9438C34.5184 63.6062 35.0366 64.1444 35.6744 64.1444C36.3121 64.1444 36.8436 63.6062 36.8436 62.9438C36.8436 62.2814 36.3121 61.7432 35.6744 61.7432C35.0366 61.7432 34.5184 62.2814 34.5184 62.9438Z" fill="#394553" stroke="#394553" stroke-width="3.5" stroke-miterlimit="10"/>
<path d="M48.642 39.8418H68.3858C70.3124 39.8418 78.4304 39.9936 78.4304 50.8821V80.6635" stroke="#394553" stroke-width="3.5" stroke-miterlimit="10" stroke-linecap="round"/>
<path d="M30.1339 37.0956L25.3507 9.12214C25.3507 9.12214 24.0752 4.29199 19.2123 4.29199L16.8739 4.5404" stroke="#394553" stroke-width="3.5" stroke-linejoin="round"/>
<path d="M28.8584 25.3237H67.2299" stroke="#394553" stroke-width="3.5" stroke-linecap="round" stroke-linejoin="round"/>
<path d="M56.7734 25.5997V39.69" stroke="#394553" stroke-width="3.5" stroke-linejoin="round"/>
<path d="M1.75381 6.73457C1.93982 8.33542 3.36148 9.49466 4.90272 9.30145L14.2432 8.12841C15.7844 7.93521 16.9005 6.45856 16.7145 4.85771L16.648 4.3057C16.462 2.70485 15.0403 1.54561 13.4991 1.73882L4.15867 2.91185C2.61743 3.10506 1.50136 4.58171 1.68738 6.18256L1.75381 6.73457Z" stroke="#394553" stroke-width="3.5" stroke-linejoin="round"/>
<path d="M73.2753 50.9926H58.5139" stroke="#394553" stroke-width="3.5" stroke-miterlimit="10"/>
<path d="M105.535 74.0254L98.533 76.1231C94.2148 77.0477 93.0058 73.3354 93.0058 73.3354L85.0338 54.3598C83.2667 50.5509 78.8423 51.0063 78.8423 51.0063" stroke="#394553" stroke-width="3.5" stroke-miterlimit="10"/>
</g>
</mask>
<g mask="url(#mask0_153_200)">
<rect x="-21.2585" width="134.194" height="97.983" fill="black"/>
</g>
<defs>
<clipPath id="clip0_153_200">
<rect width="106" height="91" fill="white"/>
</clipPath>
</defs>
</svg>
