<svg width="105" height="92" viewBox="0 0 105 92" fill="none" xmlns="http://www.w3.org/2000/svg">
<mask id="mask0_281_312" style="mask-type:alpha" maskUnits="userSpaceOnUse" x="0" y="0" width="105" height="92">
<g clip-path="url(#clip0_281_312)">
<path d="M71.8514 0C69.4617 0 67.3788 0.729024 65.8288 2.1156C63.649 4.07396 63.0032 6.84711 62.8417 8.87694H62.8094V15.9814H41.0602V10.192C41.0602 8.61964 41.4154 6.58981 42.4811 5.63207C42.7879 5.36047 43.3207 5.00311 44.4832 5.00311C46.0494 5.00311 47.3089 3.88813 47.3089 2.50155C47.3089 1.11498 46.0494 0 44.4832 0C42.0936 0 40.0107 0.729024 38.4606 2.1156C35.9579 4.35985 35.4736 7.69049 35.4251 9.73462H35.3928V41.7259H41.0441V34.4929H62.7933V41.7259H68.4445V9.46302C68.5252 8.03356 68.9127 6.44686 69.8331 5.63207C70.1399 5.36047 70.6727 5.00311 71.8352 5.00311C73.4014 5.00311 74.6609 3.88813 74.6609 2.50155C74.6609 1.11498 73.4014 0 71.8352 0H71.8514ZM62.8094 29.504H41.0602V20.9845H62.8094V29.504Z" fill="#39434E"/>
<path d="M73.2562 23.4574V28.5034C87.9171 29.99 99.3488 41.0397 99.3488 54.4052V60.9092C99.3488 75.2896 86.1249 86.9969 69.8816 86.9969H35.1184C18.8751 86.9969 5.65124 75.2896 5.65124 60.9092V54.4052C5.65124 41.3828 16.5016 30.5904 30.5974 28.6606V23.586C13.3692 25.5444 0 38.6097 0 54.4052V60.9092C0 78.0484 15.7589 92 35.1184 92H69.8816C89.2411 92 105 78.0484 105 60.9092V54.4052C105 38.2666 91.0495 24.9726 73.2562 23.4574Z" fill="#39434E"/>
<path d="M24.9299 50.1311L19.0526 55.7203C18.1484 56.5922 18.1969 57.9502 19.1818 58.7507C20.1667 59.5512 21.6845 59.5083 22.6048 58.6364L28.4821 53.0472C28.7889 52.747 29.0311 52.747 29.3379 53.0472L32.8739 56.4207C33.9073 57.407 35.3605 57.9645 36.846 57.9645C38.3314 57.9645 39.7846 57.407 40.818 56.4207L44.354 53.0472C44.6608 52.747 44.8869 52.747 45.2098 53.0472L49.1334 56.7781C50.1667 57.7644 51.6199 58.3219 53.1054 58.3219C54.5908 58.3219 56.044 57.7644 57.0774 56.7781L60.8556 53.1901C61.1624 52.8899 61.3885 52.8899 61.7114 53.1901L65.2959 56.6065C66.3293 57.5929 67.7825 58.1504 69.2679 58.1504C70.7534 58.1504 72.2066 57.5929 73.2399 56.6065L76.8244 53.1901C76.9859 53.0472 77.1474 53.0043 77.2442 53.0043C77.3411 53.0043 77.5187 53.0329 77.664 53.1901L83.4929 58.7364C83.9773 59.1939 84.6231 59.4226 85.269 59.4226C85.8664 59.4226 86.4477 59.2367 86.9159 58.8508C87.9009 58.0503 87.9493 56.6923 87.0451 55.8203L81.2162 50.274C80.1829 49.2877 78.7297 48.7302 77.2442 48.7302C75.7588 48.7302 74.3056 49.2877 73.2722 50.274L69.6877 53.6904C69.3809 53.9906 69.1387 53.9906 68.832 53.6904L65.2475 50.274C64.2141 49.2877 62.7609 48.7302 61.2755 48.7302C59.79 48.7302 58.3368 49.302 57.3034 50.274L53.5252 53.862C53.2184 54.1622 52.9923 54.1622 52.6694 53.862L48.7458 50.1311C47.7125 49.1448 46.2593 48.5873 44.7738 48.5873C43.2884 48.5873 41.8352 49.1448 40.8018 50.1311L37.2658 53.5046C36.959 53.8048 36.7329 53.8048 36.41 53.5046L32.8739 50.1311C31.8406 49.1448 30.3874 48.5873 28.9019 48.5873C27.4165 48.5873 25.9633 49.1448 24.9299 50.1311Z" fill="#39434E"/>
<path d="M77.2281 62.9962C75.7426 62.9962 74.2894 63.5537 73.2561 64.54L69.6716 67.9565C69.5101 68.0994 69.3486 68.128 69.2518 68.128C69.1549 68.128 68.9773 68.0994 68.832 67.9422L65.2475 64.5258C64.2141 63.5394 62.7609 62.9819 61.2755 62.9819C59.79 62.9819 58.3368 63.5537 57.3034 64.5258L53.5252 68.1137C53.2184 68.4139 52.9762 68.4139 52.6694 68.1137L48.7458 64.3828C47.7125 63.3965 46.2593 62.839 44.7738 62.839C43.2884 62.839 41.8352 63.3965 40.8018 64.3828L37.2658 67.742C36.959 68.0422 36.7168 68.0422 36.41 67.742L32.8739 64.3828C31.8406 63.3965 30.3874 62.839 28.9019 62.839C27.4165 62.839 25.9633 63.3965 24.9299 64.3828L19.0526 69.972C18.1484 70.844 18.1969 72.2019 19.1818 73.0024C20.1667 73.8029 21.6845 73.7601 22.6048 72.8881L28.4821 67.2989C28.7889 66.9987 29.0311 66.9987 29.3379 67.2989L32.8739 70.6581C33.9073 71.6445 35.3605 72.2019 36.846 72.2019C38.3314 72.2019 39.7846 71.6302 40.818 70.6581L44.354 67.2989C44.6608 66.9987 44.8869 66.9987 45.2098 67.2989L49.1334 71.0298C50.1667 72.0161 51.6199 72.5736 53.1054 72.5736C54.5908 72.5736 56.044 72.0018 57.0774 71.0298L60.8556 67.4419C61.1624 67.1417 61.4046 67.1417 61.7114 67.4419L65.2959 70.8583C66.3293 71.8446 67.7825 72.4021 69.2679 72.4021C70.7534 72.4021 72.2066 71.8446 73.2399 70.8583L76.8244 67.4419C76.9859 67.2989 77.1474 67.256 77.2442 67.256C77.3411 67.256 77.5187 67.2846 77.664 67.4419L83.4929 72.9882C83.9773 73.4456 84.6231 73.6743 85.269 73.6743C85.8664 73.6743 86.4477 73.4885 86.9159 73.1025C87.9009 72.302 87.9493 70.944 87.0451 70.0721L81.2162 64.5258C80.1829 63.5394 78.7297 62.9819 77.2442 62.9819L77.2281 62.9962Z" fill="#39434E"/>
</g>
</mask>
<g mask="url(#mask0_281_312)">
<rect x="-8.073" width="121.098" height="97.2032" fill="black"/>
</g>
<defs>
<clipPath id="clip0_281_312">
<rect width="105" height="92" fill="white"/>
</clipPath>
</defs>
</svg>
