<svg width="94" height="92" viewBox="0 0 94 92" fill="none" xmlns="http://www.w3.org/2000/svg">
<g clip-path="url(#clip0_296_403)">
<path d="M71.9941 9.62488C69.9865 9.62488 68.0099 9.88501 66.095 10.3764C62.2034 4.01759 54.9453 0 46.9923 0C39.0393 0 31.7812 4.00314 27.8896 10.3764C25.9747 9.88501 23.998 9.62488 21.9905 9.62488C9.86792 9.62488 0 18.874 0 30.2331C0 41.5922 9.86792 50.8269 22.0059 50.8269C25.8975 50.8269 29.7427 49.8586 33.0938 48.0233C34.3756 47.3151 34.8234 45.7688 34.0667 44.5693C33.31 43.3553 31.6576 42.9507 30.3759 43.6588C27.8433 45.0462 24.9555 45.7688 22.0059 45.7688C12.8484 45.7688 5.40496 38.803 5.40496 30.2331C5.40496 21.6632 12.8484 14.6975 22.0059 14.6975C23.9363 14.6975 25.8203 15.0154 27.6271 15.6224C27.7969 15.738 27.9668 15.8391 28.1676 15.9114C28.5073 16.0415 28.8625 16.1137 29.2177 16.1137C30.2678 16.1137 31.2716 15.5357 31.704 14.5674C34.3138 8.80113 40.321 5.07257 47.0077 5.07257C53.6944 5.07257 59.5472 8.71442 62.2034 14.3362C62.6049 15.1888 63.4542 15.7235 64.3963 15.8247C64.9213 15.9548 65.4927 15.9403 66.0332 15.738C67.9326 15.0588 69.9402 14.7119 71.9941 14.7119C81.1516 14.7119 88.595 21.6777 88.595 30.2476C88.595 38.8175 81.1516 45.7832 71.9941 45.7832C68.8592 45.7832 65.817 44.9595 63.1763 43.4131C61.91 42.6761 60.2422 43.0229 59.4546 44.208C58.667 45.393 59.0376 46.9538 60.3039 47.6909C63.8094 49.743 67.8554 50.8413 71.9941 50.8413C84.1321 50.8413 94 41.6067 94 30.2476C94 18.8885 84.1321 9.65379 71.9941 9.65379V9.62488Z" fill="black"/>
<path d="M69.1063 55.0035V75.1493H60.412V57.5904C60.412 56.1885 59.2075 55.0613 57.7095 55.0613C56.2116 55.0613 55.007 56.1885 55.007 57.5904V75.1493H49.7565V57.5904C49.7565 56.1885 48.552 55.0613 47.054 55.0613C45.5561 55.0613 44.3515 56.1885 44.3515 57.5904V75.1493H39.101V57.5904C39.101 56.1885 37.8965 55.0613 36.3985 55.0613C34.9006 55.0613 33.696 56.1885 33.696 57.5904V75.1493H24.9091V54.9457C23.5038 55.0757 22.2993 55.1191 21.2955 55.1191C20.616 55.1191 20.0292 55.0902 19.5042 55.0613V91.9856H74.5267V55.0035C73.8781 55.0757 73.0905 55.1191 72.1021 55.1191C71.2528 55.1191 70.249 55.0757 69.1217 54.989L69.1063 55.0035ZM24.8937 86.9275V80.2074H69.1063V86.9275H24.8937Z" fill="black"/>
<path d="M69.1063 55.0035V75.1493H60.412V57.5904C60.412 56.1885 59.2075 55.0613 57.7095 55.0613C56.2116 55.0613 55.007 56.1885 55.007 57.5904V75.1493H49.7565V57.5904C49.7565 56.1885 48.552 55.0613 47.054 55.0613C45.5561 55.0613 44.3515 56.1885 44.3515 57.5904V75.1493H39.101V57.5904C39.101 56.1885 37.8965 55.0613 36.3985 55.0613C34.9006 55.0613 33.696 56.1885 33.696 57.5904V75.1493H24.9091V54.9457C23.5038 55.0757 22.2993 55.1191 21.2955 55.1191C20.616 55.1191 20.0292 55.0902 19.5042 55.0613V91.9856H74.5267V55.0035C73.8781 55.0757 73.0905 55.1191 72.1021 55.1191C71.2528 55.1191 70.249 55.0757 69.1217 54.989L69.1063 55.0035ZM24.8937 86.9275V80.2074H69.1063V86.9275H24.8937Z" stroke="black"/>
</g>
<defs>
<clipPath id="clip0_296_403">
<rect width="94" height="92" fill="white"/>
</clipPath>
</defs>
</svg>
