<svg width="98" height="98" viewBox="0 0 98 98" fill="none" xmlns="http://www.w3.org/2000/svg">
<mask id="mask0_153_157" style="mask-type:alpha" maskUnits="userSpaceOnUse" x="0" y="0" width="98" height="98">
<g clip-path="url(#clip0_153_157)">
<path d="M50.8465 13.8267H32.3634C22.5687 13.8267 17.609 18.9649 17.609 29.1163V71.3992C17.609 79.8915 22.6222 85.1724 30.6863 85.1724C38.7504 85.1724 43.7637 80.0164 43.7637 71.3992V64.2094H50.8465C71.4349 64.2094 81.854 55.7528 81.854 39.0537C81.854 22.3546 71.4171 13.8088 50.8465 13.8088V13.8267ZM50.8465 57.965H37.5194V71.3992C37.5194 78.1609 33.6301 78.9281 30.6863 78.9281C27.7426 78.9281 23.8533 78.1431 23.8533 71.3992V29.1163C23.8533 22.426 26.0834 20.071 32.3634 20.071H50.8465C67.9738 20.071 75.6097 25.9228 75.6097 39.0715C75.6097 52.2203 67.9738 57.9829 50.8465 57.9829V57.965Z" fill="#39434E"/>
<path d="M50.9357 29.2769H37.5194V48.7591H51.917C56.7875 48.7591 61.9614 45.3872 61.9614 39.1607C61.9614 32.9342 57.6261 29.2947 50.9357 29.2947V29.2769ZM51.917 42.5148H43.7637V35.5212H50.9357C55.7171 35.5212 55.7171 38.1616 55.7171 39.1429C55.7171 42.4078 52.2916 42.497 51.917 42.497V42.5148Z" fill="#39434E"/>
<path d="M84.1733 0H13.8267C6.20863 0 0 6.20863 0 13.8267V84.1733C0 91.7914 6.20863 98 13.8267 98H84.1733C91.7914 98 98 91.7914 98 84.1733V13.8267C98 6.20863 91.7914 0 84.1733 0ZM91.7557 84.1733C91.7557 88.3481 88.3481 91.7557 84.1733 91.7557H13.8267C9.65192 91.7557 6.24431 88.3481 6.24431 84.1733V13.8267C6.24431 9.65192 9.65192 6.24431 13.8267 6.24431H84.1733C88.3481 6.24431 91.7557 9.65192 91.7557 13.8267V84.1733Z" fill="#39434E"/>
</g>
</mask>
<g mask="url(#mask0_153_157)">
<rect x="-16.0564" y="-3.56812" width="126.67" height="108.829" fill="black"/>
</g>
<defs>
<clipPath id="clip0_153_157">
<rect width="98" height="98" fill="white"/>
</clipPath>
</defs>
</svg>
