<svg width="96" height="92" viewBox="0 0 96 92" fill="none" xmlns="http://www.w3.org/2000/svg">
<mask id="mask0_244_400" style="mask-type:alpha" maskUnits="userSpaceOnUse" x="0" y="0" width="96" height="92">
<g clip-path="url(#clip0_244_400)">
<path d="M46.7454 30.3257C47.042 28.352 47.5789 26.2199 48.3276 23.9292L32.1807 1.05169C31.3896 -0.0720139 29.8357 -0.331331 28.7338 0.475434C27.6319 1.2822 27.3776 2.86691 28.1687 3.99062L46.7595 30.3113L46.7454 30.3257Z" fill="#39434E"/>
<path d="M95.3414 21.3072C94.9176 20.731 94.2678 20.3708 93.5615 20.3132L81.3136 19.3911C79.7173 17.5183 75.6911 14.0895 67.5541 13.7582C67.2292 13.715 66.5794 13.6285 65.7035 13.6285C63.3444 13.6285 56.5211 14.3489 53.4839 22.0996L53.3991 22.3589C49.9522 31.2333 49.7403 36.9959 52.6787 40.4967C54.4869 42.6433 57.1145 43.2771 59.3606 43.2771C60.1235 43.2771 60.8439 43.2051 61.4655 43.0899C63.2455 44.9771 65.308 46.994 67.0032 48.161C67.2716 48.3626 68.1475 48.9821 69.0798 49.2991C68.43 52.0651 67.7378 54.4854 67.1727 55.4074C64.4886 59.8446 58.287 63.792 58.2305 63.8352C57.4676 64.3107 57.0297 65.1606 57.0579 66.0682L57.7643 85.4306C57.736 86.2085 57.736 86.5111 57.6513 86.8713L55.4475 86.756L51.718 67.6386C51.5485 66.7886 50.9834 66.0971 50.1923 65.7801C49.4012 65.4632 48.5254 65.5784 47.8332 66.0971C45.361 67.9267 42.5639 68.8631 39.5267 68.8631C36.0232 68.8631 32.3926 67.5953 29.7933 65.4632C25.9085 62.2505 18.3507 61.0836 17.4889 60.9683C16.2175 60.7811 15.0167 61.6166 14.7342 62.8988L9.93111 84.134C9.6627 85.3154 9.32366 85.9204 9.12589 86.1509C8.19352 86.1221 7.6002 85.9204 7.24703 85.7475V49.4143C7.24703 44.4585 7.98162 42.4128 8.40542 41.6348C8.43367 41.6204 8.46193 41.606 8.49018 41.5772C13.6323 42.8594 19.8905 43.4932 27.1092 43.4932C35.7689 43.4932 43.7647 42.5856 48.3417 41.9373C47.3811 40.2086 46.8867 38.4366 46.6324 37.0823C42.0695 37.6874 34.7942 38.451 27.0951 38.451C19.396 38.451 13.5476 37.7594 8.61732 36.4052C8.40542 36.3476 8.19352 36.3188 7.96749 36.3188C7.96749 36.3188 7.85448 36.3188 7.78384 36.3188C3.15027 29.663 5.46706 22.7191 5.58007 22.4021C6.04625 21.0911 5.3823 19.6505 4.09676 19.175C2.81123 18.6996 1.39855 19.3767 0.93237 20.6733C0.776976 21.0911 -2.45805 30.5418 3.91311 39.4594C2.98075 41.3899 2.28854 44.4729 2.28854 49.3855V86.8424C2.28854 87.3034 2.41568 87.7501 2.64171 88.139C2.82535 88.4416 4.54882 91.1356 9.28128 91.1644C9.33779 91.1644 9.39429 91.1644 9.43667 91.1644C10.3549 91.1644 13.4487 90.7322 14.7342 85.2433L19.0005 66.342C21.4585 66.8894 24.9196 67.9123 26.6572 69.3385C30.09 72.1766 34.8931 73.8622 39.4984 73.8622C42.2955 73.8622 45.022 73.2427 47.5224 72.0614L50.8281 89.0466C50.8987 89.4356 51.0682 89.7958 51.3084 90.1127C52.1701 91.222 53.5545 91.9135 56.2951 91.9568C56.9026 91.9568 57.2981 91.9568 57.6513 91.9568C58.4565 91.9568 62.4967 91.6398 62.6804 85.4594C62.6804 85.4018 62.6804 85.3442 62.6804 85.3009L62.0306 67.264C64.2343 65.7225 68.8538 62.1785 71.3542 58.0294C72.9505 55.393 74.448 48.0889 75.1119 44.4585C78.6012 43.8534 86.0743 42.3839 89.1398 40.4967C92.9964 38.134 93.3213 36.362 94.7057 28.9283C94.9883 27.3724 95.3414 25.5283 95.7652 23.3097C95.9065 22.6038 95.737 21.8691 95.3132 21.2928L95.3414 21.3072ZM60.8298 38.0764C59.9257 38.2637 57.4959 38.5086 56.4222 37.212C55.6453 36.2756 54.3456 33.0629 58.4141 23.1801C59.4312 21.1055 60.8439 19.9386 62.3555 19.3191C63.9942 23.7419 67.2433 34.6909 60.8298 38.0764ZM89.8744 28.0206C89.0174 32.6788 87.9343 35.4064 86.6252 36.2035C84.365 37.5866 76.8495 39.1425 72.6398 39.7908C71.5944 39.9492 70.7609 40.7848 70.5772 41.8509C70.4501 42.5856 70.3088 43.4068 70.1393 44.2568C69.8144 44.0839 68.5854 43.2771 65.9013 40.5255C71.7356 34.7773 69.2917 24.2894 67.4411 18.8149C75.4227 19.175 77.7819 22.9351 77.8525 23.0648C78.2622 23.8139 78.9968 24.2894 79.8303 24.3614L90.4112 25.1537C90.2134 26.2198 90.0298 27.1707 89.8744 28.0351V28.0206Z" fill="#39434E"/>
</g>
</mask>
<g mask="url(#mask0_244_400)">
<rect x="-9.88867" width="121.49" height="99.4049" fill="black"/>
</g>
<defs>
<clipPath id="clip0_244_400">
<rect width="95.85" height="92" fill="white"/>
</clipPath>
</defs>
</svg>
