<svg width="98" height="95" viewBox="0 0 98 95" fill="none" xmlns="http://www.w3.org/2000/svg">
<g clip-path="url(#clip0_232_32)">
<path d="M38.6659 38.3751V37.1694C38.6659 32.5846 41.1693 29.9796 45.9625 29.9796C50.2519 29.9796 52.8469 32.0487 52.8469 36.3507C52.8469 39.2534 51.9005 40.9354 49.855 43.0045L47.7943 44.9545C46.9394 45.7584 44.9397 47.7084 44.6497 49.0034H52.8774V53.1863H38.6201V52.4122C38.6201 48.5717 41.0625 45.2671 43.5964 42.5431L46.0083 40.0721C47.1531 38.8366 47.5348 37.8392 47.5348 36.1423C47.5348 34.9663 47.0005 33.7308 45.5351 33.8499C43.8559 33.9392 43.688 36.0827 43.688 37.2587V38.3751H38.6354H38.6659Z" fill="#1F2838"/>
<path d="M54.6938 44.4335L62.1278 30.4708H67.6842V44.895H69.7755V48.7652H67.6842V53.1863H62.6315V48.7652H54.6938V44.4335ZM62.6315 44.895V37.3778H62.5705L58.6932 44.895H62.6315Z" fill="#1F2838"/>
<path d="M54.8466 15.1684C53.3659 15.1684 52.1753 14.0074 52.1753 12.5635V2.60498C52.1753 1.16108 53.3659 0 54.8466 0C56.3273 0 57.518 1.16108 57.518 2.60498V12.5635C57.518 14.0074 56.3273 15.1684 54.8466 15.1684Z" fill="#1F2838"/>
<path d="M95.3288 44.6865H85.1167C83.636 44.6865 82.4453 43.5255 82.4453 42.0815C82.4453 40.6376 83.636 39.4766 85.1167 39.4766H95.3288C96.8095 39.4766 98.0001 40.6376 98.0001 42.0815C98.0001 43.5255 96.8095 44.6865 95.3288 44.6865Z" fill="#1F2838"/>
<path d="M83.4834 72.5971C82.7965 72.5971 82.1096 72.344 81.5906 71.8379L74.3703 64.797C73.3323 63.7848 73.3323 62.1325 74.3703 61.1054C75.4083 60.0931 77.1027 60.0931 78.1407 61.1054L85.361 68.1463C86.399 69.1585 86.399 70.8108 85.361 71.823C84.8419 72.3291 84.155 72.5822 83.4681 72.5822L83.4834 72.5971Z" fill="#1F2838"/>
<path d="M33.4453 23.817C32.7584 23.817 32.0715 23.564 31.5525 23.0579L24.3322 16.017C23.2942 15.0047 23.2942 13.3524 24.3322 12.3402C25.3702 11.328 27.0646 11.328 28.1026 12.3402L35.3229 19.3811C36.3609 20.3933 36.3609 22.0456 35.3229 23.0579C34.8039 23.564 34.117 23.817 33.43 23.817H33.4453Z" fill="#1F2838"/>
<path d="M76.2475 23.817C75.5606 23.817 74.8737 23.564 74.3547 23.0579C73.3167 22.0456 73.3167 20.3933 74.3547 19.3811L81.5749 12.3402C82.6129 11.328 84.3073 11.328 85.3453 12.3402C86.3833 13.3524 86.3833 15.0047 85.3453 16.017L78.1251 23.0579C77.6061 23.564 76.9192 23.817 76.2322 23.817H76.2475Z" fill="#1F2838"/>
<path d="M66.6154 17.4906C66.2643 17.4906 65.9132 17.431 65.5774 17.2822C64.2189 16.7165 63.5777 15.1982 64.1578 13.8734L68.1266 4.68894C68.7067 3.36412 70.2637 2.73893 71.6223 3.30458C72.9808 3.87023 73.622 5.38857 73.0419 6.71339L69.0731 15.8978C68.6456 16.8951 67.6534 17.4906 66.6154 17.4906Z" fill="#1F2838"/>
<path d="M82.8878 33.567C81.8346 33.567 80.8271 32.9567 80.4149 31.9445C79.8654 30.6048 80.5218 29.0864 81.8804 28.5506L91.3445 24.7994C92.7184 24.2486 94.2754 24.9036 94.8249 26.2284C95.3744 27.5681 94.7181 29.0864 93.3595 29.6223L83.8953 33.3735C83.5595 33.5075 83.2237 33.567 82.8878 33.567Z" fill="#1F2838"/>
<path d="M70.0959 81.2605C69.0426 81.2605 68.0352 80.6502 67.623 79.638L63.7763 70.4089C63.2267 69.0841 63.8831 67.5508 65.2417 67.015C66.6155 66.4642 68.1725 67.1191 68.7221 68.444L72.5688 77.6731C73.1183 79.0128 72.462 80.5311 71.1034 81.067C70.7676 81.2009 70.4317 81.2605 70.0959 81.2605Z" fill="#1F2838"/>
<path d="M43.4436 17.3417C42.3903 17.3417 41.3828 16.7314 40.9707 15.7192L37.1239 6.49008C36.5744 5.15037 37.2308 3.63204 38.5894 3.09616C39.9632 2.56028 41.5202 3.20036 42.0697 4.52518L45.9165 13.7543C46.466 15.0791 45.8096 16.6123 44.451 17.1482C44.1152 17.2821 43.7794 17.3417 43.4436 17.3417Z" fill="#1F2838"/>
<path d="M92.1534 60.0336C91.8023 60.0336 91.4513 59.974 91.1154 59.8252L81.697 55.9549C80.3385 55.3893 79.6974 53.8709 80.2774 52.5461C80.8575 51.2213 82.4145 50.5961 83.7731 51.1618L93.1914 55.032C94.55 55.5977 95.1911 57.116 94.6111 58.4408C94.1837 59.4382 93.1914 60.0336 92.1534 60.0336Z" fill="#1F2838"/>
<path d="M47.5953 95C46.4046 95 45.5498 94.7321 45.1224 94.5535C35.1392 91.234 25.156 82.4812 15.4171 68.5334C15.1576 68.1464 14.9591 67.8784 14.837 67.7147C14.8065 67.67 14.776 67.6254 14.7454 67.5956C14.6844 67.4914 14.547 67.3277 14.3791 67.0746C4.54855 53.3501 -0.412514 40.6526 0.030165 30.322C0.030165 29.2949 0.350726 25.8415 4.99122 23.1025C7.23515 21.6884 12.9442 18.3242 15.8292 18.3242C16.0277 18.3242 16.2109 18.3242 16.3788 18.354C18.0274 18.5028 20.0881 19.5002 21.2635 21.9563L26.9115 34.8473C27.7816 36.3954 28.4685 39.566 25.9345 42.5729L21.7978 47.4554C23.1869 49.9115 26.0414 54.8237 28.499 58.0688C28.5448 58.1135 28.5753 58.1581 28.6211 58.2177C28.6517 58.2474 28.6822 58.2921 28.6975 58.3368C28.728 58.3665 28.7433 58.3963 28.7738 58.4409C28.8196 58.5005 28.8501 58.56 28.8806 58.6196C31.094 62.0284 34.7576 66.4048 36.6199 68.5632L42.7869 66.5685C43.6264 66.3006 44.466 66.1666 45.275 66.1666C48.1753 66.1666 49.9461 67.8338 50.4956 68.4441L60.7535 78.1942C63.0127 80.4717 62.8906 82.9427 62.4479 84.1931C61.6389 86.679 57.319 90.1622 53.7928 92.6928C51.2894 94.5832 49.0454 94.9851 47.6105 94.9851L47.5953 95ZM47.2442 89.7752C47.2442 89.7752 47.4121 89.7901 47.5953 89.7901C48.0838 89.7901 49.137 89.6263 50.5719 88.5397C53.7317 86.2919 56.8305 83.5828 57.3495 82.645C57.3495 82.6152 57.3647 82.5854 57.38 82.5556C57.38 82.4812 57.3342 82.2431 56.9679 81.8709L46.6794 72.0911C46.5878 72.0018 46.4962 71.9124 46.4199 71.8082C46.4199 71.8082 45.5956 71.1533 44.4507 71.5254L36.5894 74.0708C35.5666 74.3983 34.437 74.1006 33.7348 73.3117C33.4753 73.0289 27.5679 66.375 24.3165 61.3585C24.3165 61.3585 24.3012 61.3288 24.2859 61.3288C24.2859 61.3288 24.2859 61.3288 24.2707 61.299C20.6376 56.5356 16.394 48.7355 16.2261 48.3932C15.7224 47.4703 15.8445 46.3389 16.5314 45.5202L21.7978 39.2832C22.6984 38.2114 22.2404 37.4076 22.2404 37.4076C22.1794 37.3034 22.1031 37.1843 22.0573 37.0652L16.3788 24.0998C16.1803 23.6979 15.9819 23.5788 15.9056 23.5491C15.8598 23.5491 15.8292 23.5491 15.7834 23.5491C14.7607 23.6533 11.0361 25.514 7.78468 27.5384C5.70867 28.759 5.38811 29.8903 5.34232 30.1881C5.37284 30.3071 5.34232 30.2774 5.34232 30.4709C4.93017 39.5213 9.69278 51.4596 18.7601 64.0975C18.9433 64.3654 19.0959 64.5589 19.1875 64.6929C19.3249 64.8864 19.5538 65.199 19.8439 65.6158C31.1704 81.856 40.833 87.6614 46.9389 89.671C47.1373 89.7305 47.0915 89.6859 47.2442 89.7901V89.7752Z" fill="#1F2838"/>
</g>
<defs>
<clipPath id="clip0_232_32">
<rect width="98" height="95" fill="white"/>
</clipPath>
</defs>
</svg>
