<svg width="108" height="80" viewBox="0 0 108 80" fill="none" xmlns="http://www.w3.org/2000/svg">
<g clip-path="url(#clip0_296_395)">
<path d="M30.5706 52.6569C19.2425 52.4417 9.83725 43.1888 9.83725 43.1888C-4.29151 30.7207 4.36131 14.0503 4.36131 14.0503C4.36131 14.0503 9.67005 18.5438 20.0924 21.2147C36.5481 25.4551 46.8869 37.6066 40.2545 49.4924L39.3209 50.6316" stroke="black" stroke-width="4" stroke-linecap="round" stroke-linejoin="round"/>
<path d="M15.2295 29.4043C15.2295 29.4043 36.8546 45.2773 46.2598 61.8971" stroke="black" stroke-width="4" stroke-miterlimit="10" stroke-linecap="round"/>
<path d="M59.0369 51.6822C68.7627 56.6947 89.0222 49.9734 97.2152 36.2269C107.512 18.9489 106.202 1.58227 106.202 1.58227C106.202 1.58227 88.5485 0.886086 68.9159 12.9617C56.6682 20.4932 50.1612 35.1257 53.2545 44.6697C53.2545 44.6697 53.6725 45.7963 54.5782 47.1254" stroke="black" stroke-width="4" stroke-miterlimit="10"/>
<path d="M94.5261 13.2275C94.5261 13.2275 55.7487 39.2648 48.8794 77.8461" stroke="black" stroke-width="4" stroke-linecap="round" stroke-linejoin="round"/>
<path d="M74.2944 31.7959L88.1306 30.4423" stroke="black" stroke-width="4" stroke-linecap="round" stroke-linejoin="round"/>
<path d="M65.0564 28.1132L66.2268 39.1382" stroke="black" stroke-width="4" stroke-linecap="round" stroke-linejoin="round"/>
<path d="M80.063 16.4172L79.8818 25.1132" stroke="black" stroke-width="4" stroke-linecap="round" stroke-linejoin="round"/>
</g>
<defs>
<clipPath id="clip0_296_395">
<rect width="108" height="79.4409" fill="white"/>
</clipPath>
</defs>
</svg>
