<svg width="105" height="93" viewBox="0 0 105 93" fill="none" xmlns="http://www.w3.org/2000/svg">
<mask id="mask0_153_184" style="mask-type:alpha" maskUnits="userSpaceOnUse" x="0" y="0" width="105" height="93">
<g clip-path="url(#clip0_153_184)">
<path d="M71.8515 0C69.4618 0 67.3789 0.736948 65.8289 2.1386C63.6491 4.11824 63.0032 6.92154 62.8418 8.97343H62.8095V16.1551H41.0603V10.3028C41.0603 8.71333 41.4155 6.66144 42.4812 5.69329C42.7879 5.41874 43.3208 5.05749 44.4833 5.05749C46.0495 5.05749 47.3089 3.93039 47.3089 2.52874C47.3089 1.1271 46.0495 0 44.4833 0C42.0937 0 40.0108 0.736948 38.4607 2.1386C35.958 4.40724 35.4736 7.77408 35.4252 9.84043H35.3929V42.1795H41.0441V34.8678H62.7933V42.1795H68.4446V9.56588C68.5253 8.12088 68.9128 6.51694 69.8332 5.69329C70.1399 5.41874 70.6728 5.05749 71.8353 5.05749C73.4015 5.05749 74.6609 3.93039 74.6609 2.52874C74.6609 1.1271 73.4015 0 71.8353 0H71.8515ZM62.8095 29.8247H41.0603V21.2126H62.8095V29.8247Z" fill="#39434E"/>
<path d="M73.2562 23.7124V28.8132C87.9171 30.316 99.3488 41.4859 99.3488 54.9966V61.5713C99.3488 76.108 86.1249 87.9425 69.8816 87.9425H35.1184C18.8751 87.9425 5.65124 76.108 5.65124 61.5713V54.9966C5.65124 41.8327 16.5016 30.9229 30.5974 28.9722V23.8425C13.3692 25.8221 0 39.0294 0 54.9966V61.5713C0 78.8968 15.7589 93 35.1184 93H69.8816C89.2411 93 105 78.8968 105 61.5713V54.9966C105 38.6826 91.0495 25.2441 73.2562 23.7124Z" fill="#39434E"/>
<path d="M24.93 50.6761L19.0528 56.326C18.1486 57.2075 18.197 58.5802 19.1819 59.3894C20.1669 60.1986 21.6846 60.1553 22.605 59.2738L28.4822 53.6239C28.789 53.3204 29.0312 53.3204 29.338 53.6239L32.8741 57.0341C33.9074 58.0311 35.3606 58.5947 36.8461 58.5947C38.3315 58.5947 39.7847 58.0311 40.8181 57.0341L44.3542 53.6239C44.6609 53.3204 44.887 53.3204 45.2099 53.6239L49.1335 57.3953C50.1669 58.3924 51.62 58.9559 53.1055 58.9559C54.591 58.9559 56.0441 58.3924 57.0775 57.3953L60.8558 53.7684C61.1625 53.4649 61.3886 53.4649 61.7115 53.7684L65.296 57.2219C66.3294 58.219 67.7826 58.7825 69.268 58.7825C70.7535 58.7825 72.2067 58.219 73.2401 57.2219L76.8246 53.7684C76.986 53.6239 77.1475 53.5805 77.2444 53.5805C77.3412 53.5805 77.5188 53.6094 77.6642 53.7684L83.493 59.375C83.9774 59.8374 84.6233 60.0686 85.2691 60.0686C85.8665 60.0686 86.4478 59.8807 86.916 59.4906C87.901 58.6814 87.9494 57.3086 87.0452 56.4272L81.2164 50.8206C80.183 49.8235 78.7298 49.26 77.2444 49.26C75.7589 49.26 74.3057 49.8235 73.2723 50.8206L69.6878 54.2741C69.3811 54.5776 69.1389 54.5776 68.8321 54.2741L65.2476 50.8206C64.2142 49.8235 62.761 49.26 61.2756 49.26C59.7901 49.26 58.3369 49.838 57.3036 50.8206L53.5253 54.4475C53.2185 54.751 52.9925 54.751 52.6695 54.4475L48.746 50.6761C47.7126 49.679 46.2594 49.1155 44.774 49.1155C43.2885 49.1155 41.8353 49.679 40.8019 50.6761L37.2659 54.0863C36.9591 54.3897 36.7331 54.3897 36.4101 54.0863L32.8741 50.6761C31.8407 49.679 30.3875 49.1155 28.9021 49.1155C27.4166 49.1155 25.9634 49.679 24.93 50.6761Z" fill="#39434E"/>
<path d="M77.2282 63.681C75.7427 63.681 74.2896 64.2446 73.2562 65.2416L69.6717 68.6952C69.5102 68.8397 69.3488 68.8686 69.2519 68.8686C69.155 68.8686 68.9774 68.8397 68.8321 68.6807L65.2476 65.2272C64.2142 64.2301 62.761 63.6666 61.2756 63.6666C59.7901 63.6666 58.3369 64.2446 57.3036 65.2272L53.5253 68.8541C53.2185 69.1576 52.9763 69.1576 52.6695 68.8541L48.746 65.0827C47.7126 64.0856 46.2594 63.5221 44.774 63.5221C43.2885 63.5221 41.8353 64.0856 40.8019 65.0827L37.2659 68.4784C36.9591 68.7819 36.7169 68.7819 36.4101 68.4784L32.8741 65.0827C31.8407 64.0856 30.3875 63.5221 28.9021 63.5221C27.4166 63.5221 25.9634 64.0856 24.93 65.0827L19.0528 70.7326C18.1486 71.6141 18.197 72.9868 19.1819 73.796C20.1669 74.6052 21.6846 74.5619 22.605 73.6804L28.4822 68.0305C28.789 67.727 29.0312 67.727 29.338 68.0305L32.8741 71.4262C33.9074 72.4233 35.3606 72.9868 36.8461 72.9868C38.3315 72.9868 39.7847 72.4088 40.8181 71.4262L44.3542 68.0305C44.6609 67.727 44.887 67.727 45.2099 68.0305L49.1335 71.8019C50.1669 72.799 51.62 73.3625 53.1055 73.3625C54.591 73.3625 56.0441 72.7845 57.0775 71.8019L60.8558 68.175C61.1625 67.8715 61.4047 67.8715 61.7115 68.175L65.296 71.6285C66.3294 72.6256 67.7826 73.1891 69.268 73.1891C70.7535 73.1891 72.2067 72.6256 73.2401 71.6285L76.8246 68.175C76.986 68.0305 77.1475 67.9871 77.2444 67.9871C77.3412 67.9871 77.5188 68.016 77.6642 68.175L83.493 73.7816C83.9774 74.244 84.6233 74.4752 85.2691 74.4752C85.8665 74.4752 86.4478 74.2873 86.916 73.8972C87.901 73.088 87.9494 71.7152 87.0452 70.8338L81.2164 65.2272C80.183 64.2301 78.7298 63.6666 77.2444 63.6666L77.2282 63.681Z" fill="#39434E"/>
</g>
</mask>
<g mask="url(#mask0_153_184)">
<rect x="-8.0731" width="121.098" height="98.2598" fill="black"/>
</g>
<defs>
<clipPath id="clip0_153_184">
<rect width="105" height="93" fill="white"/>
</clipPath>
</defs>
</svg>
