<svg width="77" height="92" viewBox="0 0 77 92" fill="none" xmlns="http://www.w3.org/2000/svg">
<g clip-path="url(#clip0_296_374)">
<path d="M26.2538 70.7036C24.5203 70.7036 23.1084 72.1168 23.1084 73.8519C23.1084 75.587 24.5203 77.0002 26.2538 77.0002C27.9873 77.0002 29.3992 75.587 29.3992 73.8519C29.3992 72.1168 27.9873 70.7036 26.2538 70.7036Z" fill="black"/>
<path d="M26.2538 82.2614C24.5203 82.2614 23.1084 83.6746 23.1084 85.4096C23.1084 87.1447 24.5203 88.5579 26.2538 88.5579C27.9873 88.5579 29.3992 87.1447 29.3992 85.4096C29.3992 83.6746 27.9873 82.2614 26.2538 82.2614Z" fill="black"/>
<path d="M50.7463 70.7036C49.0128 70.7036 47.6008 72.1168 47.6008 73.8519C47.6008 75.587 49.0128 77.0002 50.7463 77.0002C52.4797 77.0002 53.8917 75.587 53.8917 73.8519C53.8917 72.1168 52.4797 70.7036 50.7463 70.7036Z" fill="black"/>
<path d="M50.7463 82.2614C49.0128 82.2614 47.6008 83.6746 47.6008 85.4096C47.6008 87.1447 49.0128 88.5579 50.7463 88.5579C52.4797 88.5579 53.8917 87.1447 53.8917 85.4096C53.8917 83.6746 52.4797 82.2614 50.7463 82.2614Z" fill="black"/>
<path d="M76.9858 92V73.614C77.2235 62.5461 67.3119 56.7392 62.0416 55.214C61.8738 55.1721 58.5886 54.2486 54.3248 53.8988V48.4557C54.3248 47.2943 53.514 46.3009 52.3816 46.063C52.102 46.007 51.8364 46.007 51.5708 46.035C55.2195 41.8653 57.1766 36.4642 57.8057 32.8122C57.8057 32.7702 57.8057 32.7283 57.8057 32.6723C57.8616 32.5324 57.8896 32.3784 57.9176 32.2245C58.0993 30.9792 58.9241 24.6267 58.1412 21.8842C57.7778 20.6248 57.2605 19.4635 56.7992 18.568L56.3658 5.17723C56.2819 2.32278 53.8914 0.0140381 51.0396 0.0140381H26.4214C23.5695 0.0140381 21.179 2.33678 21.0951 5.17723L20.7037 17.6445C20.1725 18.568 19.3756 20.1351 18.8724 21.8842C18.0755 24.6267 18.9143 30.9792 19.096 32.2245C19.124 32.3784 19.1519 32.5324 19.2079 32.6723C19.2079 32.7143 19.2079 32.7562 19.2079 32.8122C19.837 36.4502 21.7941 41.8513 25.4428 46.035C25.1772 46.007 24.8976 46.007 24.632 46.063C23.4996 46.3009 22.6888 47.2943 22.6888 48.4557V53.8988C18.425 54.2346 15.1398 55.1581 14.972 55.214C9.67373 56.7392 -0.237851 62.5461 -0.00019685 73.5581V92H4.89269V73.5161C4.66901 63.4696 15.8248 60.0694 16.2861 59.9295C16.3281 59.9295 20.4381 58.7681 25.1492 58.6842C26.3934 58.6562 27.4139 57.7047 27.5397 56.4873C28.7979 57.8306 30.2937 59.0759 32.0132 59.9155V62.742C32.0132 64.0992 33.1037 65.1906 34.4597 65.1906C35.8157 65.1906 36.9061 64.0992 36.9061 62.742V58.2504C36.9061 57.159 36.1932 56.2075 35.1447 55.8997C31.7476 54.9062 28.9377 50.6105 27.7355 48.2738C30.5174 50.5826 34.0403 52.1497 38.4299 52.1497C38.4439 52.1497 38.4718 52.1497 38.4858 52.1497C38.4998 52.1497 38.5278 52.1497 38.5417 52.1497C42.9314 52.1497 46.4542 50.5826 49.2362 48.2878C48.0339 50.6245 45.224 54.9202 41.827 55.8997C40.7785 56.2075 40.0655 57.159 40.0655 58.2504V62.742C40.0655 64.0992 41.1559 65.1906 42.512 65.1906C43.868 65.1906 44.9584 64.0992 44.9584 62.742V59.9155C46.6779 59.0759 48.1737 57.8306 49.4319 56.4873C49.5577 57.7047 50.5782 58.6562 51.8224 58.6842C56.5336 58.7681 60.6436 59.9155 60.6716 59.9295C61.1469 60.0694 72.3026 63.4696 72.079 73.5721V92.014H76.9718L76.9858 92ZM25.974 5.31716C25.974 5.09328 26.1977 4.89738 26.4074 4.89738H51.0256C51.2493 4.89738 51.459 5.10727 51.459 5.31716L51.7106 14.2303H25.6805L25.96 5.31716H25.974ZM23.5555 23.2414C24.1287 21.2685 25.275 19.5194 25.275 19.5054C25.3589 19.3655 25.4428 19.2256 25.4987 19.0857H40.401C37.7589 21.3384 32.3627 24.7946 23.4157 25.816C23.3878 24.6546 23.4157 23.7032 23.5555 23.2414ZM38.5557 47.2524C38.5557 47.2524 38.5138 47.2524 38.4998 47.2524C38.4858 47.2524 38.4579 47.2524 38.4439 47.2524C26.8687 47.2524 24.1147 32.5883 24.0169 31.9727C24.0029 31.8607 23.961 31.7628 23.933 31.6508C23.933 31.6089 23.933 31.5809 23.933 31.5389C23.8631 31.0492 23.8072 30.5315 23.7373 29.9997C39.0869 28.2787 45.4896 19.9672 45.7692 19.5894C45.8951 19.4355 45.9789 19.2536 46.0348 19.0717H51.5009C51.5568 19.2116 51.6267 19.3515 51.7246 19.4915C51.7246 19.5054 52.8849 21.2545 53.458 23.2274C53.6118 23.7591 53.6398 24.9065 53.5839 26.2778C51.1654 25.4522 49.2362 24.5847 47.7404 23.7731C46.2026 25.1024 45.21 25.914 44.2594 26.6136C46.3284 27.9149 49.2222 29.3421 53.2064 30.6014C53.1645 30.9232 53.1225 31.2311 53.0806 31.5389C53.0806 31.5809 53.0806 31.6089 53.0806 31.6508C53.0526 31.7488 53.0107 31.8607 52.9967 31.9727C52.9688 32.1266 50.1868 47.2524 38.5697 47.2524H38.5557Z" fill="black"/>
</g>
<defs>
<clipPath id="clip0_296_374">
<rect width="77" height="92" fill="white"/>
</clipPath>
</defs>
</svg>
