<svg width="274" height="50" viewBox="0 0 274 50" fill="none" xmlns="http://www.w3.org/2000/svg">
<path d="M137 1.61804L142.137 17.4291L142.25 17.7746H142.613H159.238L145.788 27.5463L145.494 27.7599L145.606 28.1054L150.744 43.9164L137.294 34.1446L137 33.9311L136.706 34.1446L123.256 43.9164L128.394 28.1054L128.506 27.7599L128.212 27.5463L114.762 17.7746H131.387H131.75L131.863 17.4291L137 1.61804Z" fill="#F0CA45" stroke="black"/>
<path d="M249 1.61804L254.137 17.4291L254.25 17.7746H254.613H271.238L257.788 27.5463L257.494 27.7599L257.606 28.1054L262.744 43.9164L249.294 34.1446L249 33.9311L248.706 34.1446L235.256 43.9164L240.394 28.1054L240.506 27.7599L240.212 27.5463L226.762 17.7746H243.387H243.75L243.863 17.4291L249 1.61804Z" stroke="black"/>
<path d="M81 1.61804L86.1373 17.4291L86.2496 17.7746H86.6129H103.238L89.7879 27.5463L89.494 27.7599L89.6063 28.1054L94.7436 43.9164L81.2939 34.1446L81 33.9311L80.7061 34.1446L67.2564 43.9164L72.3937 28.1054L72.506 27.7599L72.2121 27.5463L58.7624 17.7746H75.3871H75.7504L75.8627 17.4291L81 1.61804Z" fill="#F0CA45" stroke="black"/>
<path d="M25 1.61804L30.1373 17.4291L30.2496 17.7746H30.6129H47.2376L33.7879 27.5463L33.494 27.7599L33.6063 28.1054L38.7436 43.9164L25.2939 34.1446L25 33.9311L24.7061 34.1446L11.2564 43.9164L16.3937 28.1054L16.506 27.7599L16.2121 27.5463L2.76243 17.7746H19.3871H19.7504L19.8627 17.4291L25 1.61804Z" fill="#F0CA45" stroke="black"/>
<path d="M193 1.61804L198.137 17.4291L198.25 17.7746H198.613H215.238L201.788 27.5463L201.494 27.7599L201.606 28.1054L206.744 43.9164L193.294 34.1446L193 33.9311L192.706 34.1446L179.256 43.9164L184.394 28.1054L184.506 27.7599L184.212 27.5463L170.762 17.7746H187.387H187.75L187.863 17.4291L193 1.61804Z" fill="#F0CA45" stroke="black"/>
<path d="M249 0L254.613 17.2746H272.776L258.082 27.9508L263.695 45.2254L249 34.5491L234.305 45.2254L239.918 27.9508L225.224 17.2746H243.387L249 0Z" fill="#F0CA45"/>
<path d="M251 8.5L254.613 17.2744H272.776L258.082 27.9507L263.695 45.2253L251 35V31V26.5V23V17.2744V8.5Z" fill="#C4C4C4"/>
<path d="M249 1.61804L254.137 17.4291L254.25 17.7746H254.613H271.238L257.788 27.5463L257.494 27.7599L257.606 28.1054L262.744 43.9164L249.294 34.1446L249 33.9311L248.706 34.1446L235.256 43.9164L240.394 28.1054L240.506 27.7599L240.212 27.5463L226.762 17.7746H243.387H243.75L243.863 17.4291L249 1.61804Z" stroke="black"/>
</svg>
