<svg width="117" height="90" viewBox="0 0 117 90" fill="none" xmlns="http://www.w3.org/2000/svg">
<mask id="mask0_153_122" style="mask-type:alpha" maskUnits="userSpaceOnUse" x="0" y="0" width="117" height="90">
<g clip-path="url(#clip0_153_122)">
<path d="M116.981 83.9481H0V90H116.981V83.9481Z" fill="#39434E"/>
<path d="M103.967 0H13.0331C5.86489 0 0 5.44669 0 12.1037V64.6167C0 71.2738 5.86489 76.7205 13.0331 76.7205H103.967C111.135 76.7205 117 71.2738 117 64.6167V12.1037C117 5.44669 111.135 0 103.967 0ZM110.483 64.6167C110.483 67.9539 107.56 70.6686 103.967 70.6686H13.0331C9.43969 70.6686 6.51655 67.9539 6.51655 64.6167V12.1037C6.51655 8.76657 9.43969 6.05187 13.0331 6.05187H103.967C107.56 6.05187 110.483 8.76657 110.483 12.1037V64.6167Z" fill="#39434E"/>
<path d="M59.5054 58.1845C62.5903 58.1845 65.091 55.862 65.091 52.9971C65.091 50.1323 62.5903 47.8098 59.5054 47.8098C56.4206 47.8098 53.9198 50.1323 53.9198 52.9971C53.9198 55.862 56.4206 58.1845 59.5054 58.1845Z" fill="#39434E"/>
<path d="M59.5054 33.0952C51.9835 33.0952 44.927 36.8301 41.0729 42.8647C40.1606 44.2998 40.6633 46.15 42.2086 47.0145C43.754 47.8791 45.7648 47.3949 46.6771 45.9598C49.3955 41.7062 54.1991 39.1471 59.5054 39.1471C64.8118 39.1471 69.6899 41.7753 72.371 46.0116C72.9854 46.9799 74.0653 47.4987 75.1824 47.4987C75.741 47.4987 76.3181 47.3603 76.8208 47.0837C78.3662 46.2364 78.8875 44.3863 77.9752 42.9511C74.1397 36.882 67.0646 33.1125 59.5054 33.1125V33.0952Z" fill="#39434E"/>
<path d="M89.0533 30.9165C81.8107 22.5649 71.0304 17.7753 59.5054 17.7753C47.9804 17.7753 37.2747 22.5476 30.032 30.8473C28.8963 32.1441 29.1197 34.0462 30.5161 35.1009C31.9125 36.1557 33.9606 35.9482 35.0963 34.6514C41.1101 27.7695 49.9913 23.8271 59.5054 23.8271C69.0196 23.8271 77.9752 27.8041 83.9704 34.7205C84.6221 35.464 85.553 35.8444 86.5026 35.8444C87.2287 35.8444 87.9362 35.6196 88.5506 35.1701C89.947 34.1153 90.1705 32.2133 89.0347 30.9165H89.0533Z" fill="#39434E"/>
</g>
</mask>
<g mask="url(#mask0_153_122)">
<rect x="-16.757" y="-5.18738" width="156.397" height="108.934" fill="black"/>
</g>
<defs>
<clipPath id="clip0_153_122">
<rect width="117" height="90" fill="white"/>
</clipPath>
</defs>
</svg>
